<svg xmlns="http://www.w3.org/2000/svg" xmlns:xlink="http://www.w3.org/1999/xlink" width="500" zoomAndPan="magnify" viewBox="0 0 375 149.999998" height="200" preserveAspectRatio="xMidYMid meet" version="1.0"><defs><g/><clipPath id="c0c9f8e819"><path d="M 303 49 L 362.855469 49 L 362.855469 105 L 303 105 Z M 303 49 " clip-rule="nonzero"/></clipPath><clipPath id="d2cb3554d5"><path d="M 302.855469 86 L 316 86 L 316 97 L 302.855469 97 Z M 302.855469 86 " clip-rule="nonzero"/></clipPath></defs><g fill="#ec451c" fill-opacity="1"><g transform="translate(17.100339, 97.67787)"><g><path d="M 5.4375 0 L 5.4375 -43.15625 L 14.578125 -43.15625 L 14.578125 -7.5625 L 32.09375 -7.5625 L 32.09375 0 Z M 5.4375 0 "/></g></g></g><g fill="#ec451c" fill-opacity="1"><g transform="translate(51.24997, 97.67787)"><g><path d="M 5.4375 0 L 5.4375 -43.15625 L 14.578125 -43.15625 L 14.578125 0 Z M 5.4375 0 "/></g></g></g><g fill="#ec451c" fill-opacity="1"><g transform="translate(71.261588, 97.67787)"><g><path d="M 14.4375 0 L 5.4375 0 L 5.4375 -43.15625 L 30.171875 -43.15625 L 30.171875 -35.65625 L 14.4375 -35.65625 L 14.4375 -24.53125 L 29.078125 -24.53125 L 29.078125 -17.0625 L 14.4375 -17.0625 Z M 14.4375 0 "/></g></g></g><g fill="#ec451c" fill-opacity="1"><g transform="translate(104.43719, 97.67787)"><g><path d="M 30.28125 0 L 5.4375 0 L 5.4375 -43.15625 L 30.28125 -43.15625 L 30.28125 -35.65625 L 14.578125 -35.65625 L 14.578125 -26.1875 L 29.1875 -26.1875 L 29.1875 -18.6875 L 14.578125 -18.6875 L 14.578125 -7.5625 L 30.28125 -7.5625 Z M 30.28125 0 "/></g></g></g><g fill="#ec451c" fill-opacity="1"><g transform="translate(138.291664, 97.67787)"><g><path d="M 14.578125 -22.84375 L 17.59375 -22.84375 C 20.40625 -22.84375 22.507812 -23.398438 23.90625 -24.515625 C 25.300781 -25.628906 26 -27.25 26 -29.375 C 26 -31.519531 25.414062 -33.101562 24.25 -34.125 C 23.082031 -35.144531 21.25 -35.65625 18.75 -35.65625 L 14.578125 -35.65625 Z M 35.25 -29.6875 C 35.25 -25.050781 33.796875 -21.5 30.890625 -19.03125 C 27.984375 -16.570312 23.859375 -15.34375 18.515625 -15.34375 L 14.578125 -15.34375 L 14.578125 0 L 5.4375 0 L 5.4375 -43.15625 L 19.21875 -43.15625 C 24.445312 -43.15625 28.425781 -42.023438 31.15625 -39.765625 C 33.882812 -37.515625 35.25 -34.15625 35.25 -29.6875 Z M 35.25 -29.6875 "/></g></g></g><g fill="#ec451c" fill-opacity="1"><g transform="translate(176.248802, 97.67787)"><g><path d="M 31.84375 0 L 28.71875 -10.265625 L 12.984375 -10.265625 L 9.859375 0 L 0 0 L 15.234375 -43.328125 L 26.421875 -43.328125 L 41.703125 0 Z M 26.53125 -17.953125 C 23.644531 -27.253906 22.019531 -32.515625 21.65625 -33.734375 C 21.289062 -34.953125 21.03125 -35.914062 20.875 -36.625 C 20.21875 -34.113281 18.359375 -27.890625 15.296875 -17.953125 Z M 26.53125 -17.953125 "/></g></g></g><g fill="#ec451c" fill-opacity="1"><g transform="translate(217.954443, 97.67787)"><g><path d="M 30.90625 -11.984375 C 30.90625 -8.085938 29.503906 -5.015625 26.703125 -2.765625 C 23.898438 -0.523438 20 0.59375 15 0.59375 C 10.394531 0.59375 6.320312 -0.269531 2.78125 -2 L 2.78125 -10.515625 C 5.6875 -9.210938 8.144531 -8.296875 10.15625 -7.765625 C 12.175781 -7.234375 14.023438 -6.96875 15.703125 -6.96875 C 17.710938 -6.96875 19.253906 -7.347656 20.328125 -8.109375 C 21.398438 -8.878906 21.9375 -10.023438 21.9375 -11.546875 C 21.9375 -12.390625 21.695312 -13.140625 21.21875 -13.796875 C 20.75 -14.453125 20.054688 -15.085938 19.140625 -15.703125 C 18.222656 -16.316406 16.359375 -17.289062 13.546875 -18.625 C 10.910156 -19.863281 8.929688 -21.050781 7.609375 -22.1875 C 6.296875 -23.332031 5.242188 -24.660156 4.453125 -26.171875 C 3.671875 -27.691406 3.28125 -29.46875 3.28125 -31.5 C 3.28125 -35.3125 4.570312 -38.3125 7.15625 -40.5 C 9.75 -42.6875 13.328125 -43.78125 17.890625 -43.78125 C 20.128906 -43.78125 22.265625 -43.515625 24.296875 -42.984375 C 26.335938 -42.453125 28.472656 -41.703125 30.703125 -40.734375 L 27.75 -33.625 C 25.445312 -34.5625 23.539062 -35.21875 22.03125 -35.59375 C 20.53125 -35.96875 19.050781 -36.15625 17.59375 -36.15625 C 15.863281 -36.15625 14.535156 -35.75 13.609375 -34.9375 C 12.679688 -34.132812 12.21875 -33.085938 12.21875 -31.796875 C 12.21875 -30.984375 12.40625 -30.273438 12.78125 -29.671875 C 13.15625 -29.078125 13.75 -28.5 14.5625 -27.9375 C 15.382812 -27.375 17.320312 -26.363281 20.375 -24.90625 C 24.40625 -22.976562 27.164062 -21.046875 28.65625 -19.109375 C 30.15625 -17.171875 30.90625 -14.796875 30.90625 -11.984375 Z M 30.90625 -11.984375 "/></g></g></g><g fill="#ec451c" fill-opacity="1"><g transform="translate(251.248107, 97.67787)"><g><path d="M 30.90625 -11.984375 C 30.90625 -8.085938 29.503906 -5.015625 26.703125 -2.765625 C 23.898438 -0.523438 20 0.59375 15 0.59375 C 10.394531 0.59375 6.320312 -0.269531 2.78125 -2 L 2.78125 -10.515625 C 5.6875 -9.210938 8.144531 -8.296875 10.15625 -7.765625 C 12.175781 -7.234375 14.023438 -6.96875 15.703125 -6.96875 C 17.710938 -6.96875 19.253906 -7.347656 20.328125 -8.109375 C 21.398438 -8.878906 21.9375 -10.023438 21.9375 -11.546875 C 21.9375 -12.390625 21.695312 -13.140625 21.21875 -13.796875 C 20.75 -14.453125 20.054688 -15.085938 19.140625 -15.703125 C 18.222656 -16.316406 16.359375 -17.289062 13.546875 -18.625 C 10.910156 -19.863281 8.929688 -21.050781 7.609375 -22.1875 C 6.296875 -23.332031 5.242188 -24.660156 4.453125 -26.171875 C 3.671875 -27.691406 3.28125 -29.46875 3.28125 -31.5 C 3.28125 -35.3125 4.570312 -38.3125 7.15625 -40.5 C 9.75 -42.6875 13.328125 -43.78125 17.890625 -43.78125 C 20.128906 -43.78125 22.265625 -43.515625 24.296875 -42.984375 C 26.335938 -42.453125 28.472656 -41.703125 30.703125 -40.734375 L 27.75 -33.625 C 25.445312 -34.5625 23.539062 -35.21875 22.03125 -35.59375 C 20.53125 -35.96875 19.050781 -36.15625 17.59375 -36.15625 C 15.863281 -36.15625 14.535156 -35.75 13.609375 -34.9375 C 12.679688 -34.132812 12.21875 -33.085938 12.21875 -31.796875 C 12.21875 -30.984375 12.40625 -30.273438 12.78125 -29.671875 C 13.15625 -29.078125 13.75 -28.5 14.5625 -27.9375 C 15.382812 -27.375 17.320312 -26.363281 20.375 -24.90625 C 24.40625 -22.976562 27.164062 -21.046875 28.65625 -19.109375 C 30.15625 -17.171875 30.90625 -14.796875 30.90625 -11.984375 Z M 30.90625 -11.984375 "/></g></g></g><g clip-path="url(#c0c9f8e819)"><path fill="#ec451c" d="M 308.921875 88.828125 C 309.359375 89.417969 310.191406 89.539062 310.785156 89.101562 C 311.441406 88.617188 312.21875 88.359375 313.03125 88.359375 C 314.238281 88.359375 315.34375 88.914062 316.0625 89.882812 C 317.304688 91.554688 316.953125 93.921875 315.28125 95.164062 C 314.691406 95.601562 314.566406 96.4375 315.007812 97.027344 L 320.1875 104.003906 C 320.449219 104.355469 320.851562 104.542969 321.257812 104.542969 C 321.535156 104.542969 321.8125 104.457031 322.050781 104.28125 L 362.359375 74.359375 C 362.949219 73.921875 363.074219 73.085938 362.632812 72.496094 L 357.453125 65.519531 C 357.246094 65.234375 356.929688 65.046875 356.578125 64.992188 C 356.230469 64.941406 355.875 65.03125 355.589844 65.242188 C 354.933594 65.726562 354.15625 65.984375 353.34375 65.984375 C 352.136719 65.984375 351.03125 65.429688 350.308594 64.460938 C 349.710938 63.652344 349.460938 62.65625 349.609375 61.660156 C 349.753906 60.664062 350.28125 59.78125 351.09375 59.183594 C 351.375 58.972656 351.5625 58.65625 351.617188 58.308594 C 351.667969 57.957031 351.578125 57.601562 351.367188 57.316406 L 346.1875 50.339844 C 345.75 49.75 344.914062 49.625 344.320312 50.0625 L 304.015625 79.984375 C 303.730469 80.195312 303.542969 80.511719 303.492188 80.859375 C 303.441406 81.210938 303.53125 81.566406 303.738281 81.851562 Z M 334.910156 60.371094 L 335.308594 60.90625 C 335.503906 61.171875 335.804688 61.3125 336.109375 61.3125 C 336.316406 61.3125 336.527344 61.246094 336.707031 61.113281 C 337.148438 60.785156 337.242188 60.160156 336.914062 59.714844 L 336.515625 59.179688 L 344.839844 53 L 348.511719 57.945312 C 347.691406 58.871094 347.15625 60.015625 346.96875 61.269531 C 346.71875 62.972656 347.144531 64.667969 348.167969 66.050781 C 349.378906 67.679688 351.3125 68.652344 353.34375 68.652344 C 354.28125 68.652344 355.191406 68.453125 356.027344 68.066406 L 359.699219 73.011719 L 351.371094 79.195312 L 350.972656 78.660156 C 350.644531 78.214844 350.019531 78.121094 349.574219 78.453125 C 349.132812 78.78125 349.039062 79.40625 349.367188 79.851562 L 349.765625 80.386719 L 321.53125 101.34375 L 317.859375 96.398438 C 319.832031 94.164062 320.050781 90.777344 318.203125 88.292969 C 316.996094 86.664062 315.0625 85.691406 313.03125 85.691406 C 312.09375 85.691406 311.183594 85.890625 310.347656 86.277344 L 306.675781 81.332031 Z M 334.910156 60.371094 " fill-opacity="1" fill-rule="nonzero"/></g><path fill="#ec451c" d="M 346.554688 76.0625 C 346.753906 76.328125 347.054688 76.464844 347.359375 76.464844 C 347.566406 76.464844 347.777344 76.402344 347.957031 76.269531 C 348.398438 75.9375 348.492188 75.3125 348.160156 74.871094 L 345.347656 71.082031 C 345.019531 70.636719 344.394531 70.546875 343.949219 70.875 C 343.507812 71.203125 343.414062 71.828125 343.742188 72.273438 Z M 346.554688 76.0625 " fill-opacity="1" fill-rule="nonzero"/><path fill="#ec451c" d="M 340.933594 68.484375 C 341.128906 68.75 341.429688 68.890625 341.734375 68.890625 C 341.941406 68.890625 342.152344 68.824219 342.332031 68.691406 C 342.773438 68.363281 342.867188 67.734375 342.539062 67.292969 L 339.726562 63.503906 C 339.394531 63.0625 338.769531 62.96875 338.324219 63.296875 C 337.882812 63.625 337.789062 64.253906 338.121094 64.695312 Z M 340.933594 68.484375 " fill-opacity="1" fill-rule="nonzero"/><path fill="#ec451c" d="M 315.054688 70.132812 C 315.25 70.238281 315.460938 70.285156 315.667969 70.285156 C 316.148438 70.285156 316.613281 70.023438 316.851562 69.566406 L 322.285156 59.148438 L 322.734375 59.382812 C 322.878906 59.457031 323.039062 59.496094 323.195312 59.496094 C 323.554688 59.496094 323.902344 59.300781 324.082031 58.957031 C 324.335938 58.46875 324.148438 57.863281 323.65625 57.609375 L 323.210938 57.375 L 328.003906 48.179688 L 333.46875 51.03125 C 333.128906 52.230469 333.148438 53.507812 333.539062 54.726562 C 333.761719 55.425781 334.511719 55.8125 335.214844 55.589844 C 335.917969 55.363281 336.304688 54.613281 336.078125 53.910156 C 335.769531 52.945312 335.859375 51.917969 336.328125 51.015625 C 336.667969 50.363281 336.414062 49.558594 335.761719 49.21875 L 328.054688 45.199219 C 327.742188 45.035156 327.375 45.003906 327.039062 45.109375 C 326.703125 45.21875 326.421875 45.453125 326.257812 45.765625 L 314.488281 68.335938 C 314.148438 68.988281 314.398438 69.792969 315.054688 70.132812 Z M 315.054688 70.132812 " fill-opacity="1" fill-rule="nonzero"/><g clip-path="url(#d2cb3554d5)"><path fill="#ec451c" d="M 303.613281 92.074219 L 311.316406 96.089844 C 311.507812 96.191406 311.71875 96.242188 311.933594 96.242188 C 312.066406 96.242188 312.203125 96.222656 312.332031 96.179688 C 312.671875 96.074219 312.953125 95.839844 313.113281 95.527344 C 313.539062 94.714844 314.242188 94.085938 315.09375 93.753906 C 315.78125 93.488281 316.121094 92.714844 315.855469 92.027344 C 315.589844 91.339844 314.8125 91 314.128906 91.269531 C 313.09375 91.667969 312.1875 92.328125 311.492188 93.175781 L 306.027344 90.324219 L 306.792969 88.851562 C 307.136719 88.199219 306.882812 87.394531 306.230469 87.054688 C 305.574219 86.714844 304.769531 86.96875 304.429688 87.621094 L 303.046875 90.273438 C 302.882812 90.589844 302.847656 90.953125 302.957031 91.292969 C 303.0625 91.628906 303.296875 91.910156 303.613281 92.074219 Z M 303.613281 92.074219 " fill-opacity="1" fill-rule="nonzero"/></g><path fill="#ec451c" d="M 329.347656 99.511719 L 328.128906 101.851562 L 327.488281 101.519531 C 326.835938 101.179688 326.03125 101.433594 325.691406 102.085938 C 325.351562 102.738281 325.605469 103.542969 326.257812 103.882812 L 328.078125 104.832031 C 328.269531 104.933594 328.480469 104.984375 328.691406 104.984375 C 328.828125 104.984375 328.960938 104.964844 329.09375 104.921875 C 329.429688 104.816406 329.710938 104.582031 329.875 104.265625 L 331.710938 100.746094 C 332.050781 100.09375 331.800781 99.285156 331.144531 98.945312 C 330.496094 98.605469 329.6875 98.859375 329.347656 99.511719 Z M 329.347656 99.511719 " fill-opacity="1" fill-rule="nonzero"/><path fill="#ec451c" d="M 326.6875 59.1875 C 326.195312 58.933594 325.59375 59.121094 325.335938 59.613281 C 325.082031 60.101562 325.273438 60.707031 325.761719 60.960938 L 326.507812 61.351562 C 326.65625 61.425781 326.8125 61.464844 326.96875 61.464844 C 327.332031 61.464844 327.679688 61.269531 327.855469 60.925781 C 328.113281 60.4375 327.921875 59.832031 327.433594 59.578125 Z M 326.6875 59.1875 " fill-opacity="1" fill-rule="nonzero"/></svg>