<svg xmlns="http://www.w3.org/2000/svg" xmlns:xlink="http://www.w3.org/1999/xlink" width="500" zoomAndPan="magnify" viewBox="0 0 375 149.999998" height="200" preserveAspectRatio="xMidYMid meet" version="1.0"><defs><g/></defs><g fill="#ec451c" fill-opacity="1"><g transform="translate(7.591949, 105.533288)"><g><path d="M 7.3125 0 L 7.3125 -58.109375 L 19.640625 -58.109375 L 19.640625 -10.171875 L 43.203125 -10.171875 L 43.203125 0 Z M 7.3125 0 "/></g></g></g><g fill="#ec451c" fill-opacity="1"><g transform="translate(53.570713, 105.533288)"><g><path d="M 7.3125 0 L 7.3125 -58.109375 L 19.640625 -58.109375 L 19.640625 0 Z M 7.3125 0 "/></g></g></g><g fill="#ec451c" fill-opacity="1"><g transform="translate(80.514179, 105.533288)"><g><path d="M 19.4375 0 L 7.3125 0 L 7.3125 -58.109375 L 40.625 -58.109375 L 40.625 -48.015625 L 19.4375 -48.015625 L 19.4375 -33.03125 L 39.15625 -33.03125 L 39.15625 -22.96875 L 19.4375 -22.96875 Z M 19.4375 0 "/></g></g></g><g fill="#ec451c" fill-opacity="1"><g transform="translate(125.181518, 105.533288)"><g><path d="M 40.78125 0 L 7.3125 0 L 7.3125 -58.109375 L 40.78125 -58.109375 L 40.78125 -48.015625 L 19.640625 -48.015625 L 19.640625 -35.25 L 39.3125 -35.25 L 39.3125 -25.15625 L 19.640625 -25.15625 L 19.640625 -10.171875 L 40.78125 -10.171875 Z M 40.78125 0 "/></g></g></g><g fill="#ec451c" fill-opacity="1"><g transform="translate(170.762886, 105.533288)"><g><path d="M 19.640625 -30.765625 L 23.6875 -30.765625 C 27.476562 -30.765625 30.3125 -31.507812 32.1875 -33 C 34.070312 -34.5 35.015625 -36.679688 35.015625 -39.546875 C 35.015625 -42.441406 34.222656 -44.578125 32.640625 -45.953125 C 31.066406 -47.328125 28.597656 -48.015625 25.234375 -48.015625 L 19.640625 -48.015625 Z M 47.453125 -39.984375 C 47.453125 -33.734375 45.5 -28.953125 41.59375 -25.640625 C 37.6875 -22.328125 32.128906 -20.671875 24.921875 -20.671875 L 19.640625 -20.671875 L 19.640625 0 L 7.3125 0 L 7.3125 -58.109375 L 25.875 -58.109375 C 32.925781 -58.109375 38.285156 -56.59375 41.953125 -53.5625 C 45.617188 -50.53125 47.453125 -46.003906 47.453125 -39.984375 Z M 47.453125 -39.984375 "/></g></g></g><g fill="#ec451c" fill-opacity="1"><g transform="translate(221.868044, 105.533288)"><g><path d="M 42.890625 0 L 38.671875 -13.828125 L 17.484375 -13.828125 L 13.28125 0 L 0 0 L 20.515625 -58.359375 L 35.578125 -58.359375 L 56.171875 0 Z M 35.734375 -24.171875 C 31.835938 -36.703125 29.644531 -43.785156 29.15625 -45.421875 C 28.664062 -47.066406 28.316406 -48.367188 28.109375 -49.328125 C 27.234375 -45.929688 24.726562 -37.546875 20.59375 -24.171875 Z M 35.734375 -24.171875 "/></g></g></g><g fill="#ec451c" fill-opacity="1"><g transform="translate(278.020153, 105.533288)"><g><path d="M 41.625 -16.140625 C 41.625 -10.890625 39.734375 -6.753906 35.953125 -3.734375 C 32.171875 -0.710938 26.914062 0.796875 20.1875 0.796875 C 13.988281 0.796875 8.503906 -0.367188 3.734375 -2.703125 L 3.734375 -14.15625 C 7.660156 -12.40625 10.976562 -11.171875 13.6875 -10.453125 C 16.40625 -9.734375 18.890625 -9.375 21.140625 -9.375 C 23.847656 -9.375 25.921875 -9.890625 27.359375 -10.921875 C 28.804688 -11.960938 29.53125 -13.503906 29.53125 -15.546875 C 29.53125 -16.679688 29.210938 -17.691406 28.578125 -18.578125 C 27.941406 -19.472656 27.003906 -20.328125 25.765625 -21.140625 C 24.535156 -21.960938 22.03125 -23.273438 18.25 -25.078125 C 14.695312 -26.742188 12.03125 -28.347656 10.25 -29.890625 C 8.476562 -31.429688 7.0625 -33.21875 6 -35.25 C 4.9375 -37.289062 4.40625 -39.675781 4.40625 -42.40625 C 4.40625 -47.550781 6.144531 -51.59375 9.625 -54.53125 C 13.113281 -57.476562 17.9375 -58.953125 24.09375 -58.953125 C 27.113281 -58.953125 29.992188 -58.59375 32.734375 -57.875 C 35.472656 -57.15625 38.34375 -56.148438 41.34375 -54.859375 L 37.359375 -45.28125 C 34.265625 -46.550781 31.703125 -47.4375 29.671875 -47.9375 C 27.640625 -48.4375 25.644531 -48.6875 23.6875 -48.6875 C 21.351562 -48.6875 19.5625 -48.144531 18.3125 -47.0625 C 17.070312 -45.976562 16.453125 -44.5625 16.453125 -42.8125 C 16.453125 -41.726562 16.703125 -40.78125 17.203125 -39.96875 C 17.710938 -39.15625 18.515625 -38.367188 19.609375 -37.609375 C 20.710938 -36.859375 23.316406 -35.503906 27.421875 -33.546875 C 32.859375 -30.953125 36.582031 -28.347656 38.59375 -25.734375 C 40.613281 -23.128906 41.625 -19.929688 41.625 -16.140625 Z M 41.625 -16.140625 "/></g></g></g><g fill="#ec451c" fill-opacity="1"><g transform="translate(322.84645, 105.533288)"><g><path d="M 41.625 -16.140625 C 41.625 -10.890625 39.734375 -6.753906 35.953125 -3.734375 C 32.171875 -0.710938 26.914062 0.796875 20.1875 0.796875 C 13.988281 0.796875 8.503906 -0.367188 3.734375 -2.703125 L 3.734375 -14.15625 C 7.660156 -12.40625 10.976562 -11.171875 13.6875 -10.453125 C 16.40625 -9.734375 18.890625 -9.375 21.140625 -9.375 C 23.847656 -9.375 25.921875 -9.890625 27.359375 -10.921875 C 28.804688 -11.960938 29.53125 -13.503906 29.53125 -15.546875 C 29.53125 -16.679688 29.210938 -17.691406 28.578125 -18.578125 C 27.941406 -19.472656 27.003906 -20.328125 25.765625 -21.140625 C 24.535156 -21.960938 22.03125 -23.273438 18.25 -25.078125 C 14.695312 -26.742188 12.03125 -28.347656 10.25 -29.890625 C 8.476562 -31.429688 7.0625 -33.21875 6 -35.25 C 4.9375 -37.289062 4.40625 -39.675781 4.40625 -42.40625 C 4.40625 -47.550781 6.144531 -51.59375 9.625 -54.53125 C 13.113281 -57.476562 17.9375 -58.953125 24.09375 -58.953125 C 27.113281 -58.953125 29.992188 -58.59375 32.734375 -57.875 C 35.472656 -57.15625 38.34375 -56.148438 41.34375 -54.859375 L 37.359375 -45.28125 C 34.265625 -46.550781 31.703125 -47.4375 29.671875 -47.9375 C 27.640625 -48.4375 25.644531 -48.6875 23.6875 -48.6875 C 21.351562 -48.6875 19.5625 -48.144531 18.3125 -47.0625 C 17.070312 -45.976562 16.453125 -44.5625 16.453125 -42.8125 C 16.453125 -41.726562 16.703125 -40.78125 17.203125 -39.96875 C 17.710938 -39.15625 18.515625 -38.367188 19.609375 -37.609375 C 20.710938 -36.859375 23.316406 -35.503906 27.421875 -33.546875 C 32.859375 -30.953125 36.582031 -28.347656 38.59375 -25.734375 C 40.613281 -23.128906 41.625 -19.929688 41.625 -16.140625 Z M 41.625 -16.140625 "/></g></g></g></svg>