<?xml version="1.0" encoding="utf-8"?>
<!-- Generator: Adobe Illustrator 27.5.0, SVG Export Plug-In . SVG Version: 6.00 Build 0)  -->
<svg version="1.1" id="_x2018_ëîé_x5F_1" xmlns="http://www.w3.org/2000/svg" xmlns:xlink="http://www.w3.org/1999/xlink"
	 x="0px" y="0px" viewBox="0 0 2167 2052" style="enable-background:new 0 0 3200 2000;" xml:space="preserve">
<rect style="fill:#FFFFFF;" width="3200" height="2000"/>
<g>
	<path style="fill:#EBF3FA;" d="M3059.176,1311.571c-1.281-48.58-8.599-87.257-20.383-118.385
		c-18.813-49.711-49.019-80.181-84.221-101.025c-5.379-3.186-10.873-6.152-16.459-8.922c-2.309-1.143-4.64-2.263-6.982-3.348
		c-10.354-4.801-20.995-9.002-31.775-12.823c-5.598-1.984-11.241-3.866-16.886-5.678c-2.17-0.693-4.339-1.374-6.521-2.043
		c-18.768-5.84-37.661-10.988-55.955-16.539c-6.671-2.021-13.262-4.098-19.748-6.279c-6.244-2.101-12.385-4.294-18.387-6.625
		c-10.722-4.178-21.018-8.807-30.701-14.162c-0.635-0.346-1.27-0.704-1.904-1.061c-2.678-1.512-5.309-3.094-7.883-4.733
		c-15.916-10.099-29.848-22.61-40.928-38.861c-0.588-0.854-1.177-1.731-1.73-2.608c-1.513-2.32-2.955-4.709-4.34-7.168
		c-8.715-15.559-15.108-34.175-18.56-56.786c-1.385-9.061-2.297-18.756-2.7-29.155c-6.198-160.085-169.77-523.987-621.459-449.958
		c-20.094,3.289-40.766,7.456-62.003,12.534c-11.634,2.782-23.452,5.84-35.433,9.188
		c-367.134,102.491-275.492,270.84-794.436,187.07c-19.759-3.185-40.408-6.729-62.002-10.676c-6.96-1.269-14.023-2.574-21.18-3.924
		c-133.943-25.265-503.085-32.606-769.193,235.073c-6.486,6.521-12.696,13.111-18.652,19.783
		c-8.887,9.96-17.208,20.071-24.976,30.332c-0.577,0.762-1.154,1.523-1.72,2.285c-10.26,13.711-19.54,27.677-27.908,41.839
		c0,0.012,0,0.012,0,0.012c-3.324,5.609-6.498,11.242-9.522,16.909c-2.655,4.963-5.206,9.949-7.641,14.947
		c-9.302,19.032-17.082,38.353-23.522,57.882c-1.431,4.363-2.805,8.737-4.109,13.112c-0.946,3.174-1.858,6.348-2.735,9.533
		c-1.143,4.132-2.216,8.264-3.255,12.407c-0.692,2.851-1.374,5.713-2.02,8.576c-0.427,1.857-0.842,3.704-1.223,5.551
		c-1.189,5.391-2.262,10.78-3.243,16.193c-1.939,10.63-3.544,21.295-4.813,31.96c-1.905,15.904-3.082,31.82-3.624,47.702
		c-0.242,6.913-0.357,13.815-0.357,20.718c0,122.932,36.599,242.447,75.183,334.309c3.301,7.86,6.614,15.513,9.926,22.945
		c0.554,1.246,1.108,2.481,1.65,3.717c0.681,1.5,1.351,3.001,2.031,4.478h5.101c0.023,0.069,0.058,0.127,0.081,0.196l0.173,0.404
		v-0.601h2764.949c0.623-2.746,1.223-5.482,1.823-8.194C3052.031,1457.344,3060.872,1375.801,3059.176,1311.571z"/>
	<g>
		<path style="fill:#DFEBFA;" d="M3038.793,1193.187c-18.813-49.711-49.019-80.181-84.221-101.025
			c-5.379-3.186-10.873-6.152-16.459-8.922c-2.309-1.143-4.64-2.263-6.982-3.348c-10.354-4.801-20.995-9.002-31.775-12.823
			l-23.406-7.721c-18.768-5.84-37.661-10.988-55.955-16.539c-6.671-2.021-13.262-4.098-19.748-6.279
			c-6.244-2.101-12.385-4.294-18.387-6.625c-10.722-4.178-21.018-8.807-30.701-14.162c-0.635-0.346-1.27-0.704-1.904-1.061
			c-2.678-1.512-5.309-3.094-7.883-4.733c-15.916-10.099-29.848-22.61-40.928-38.861c-0.588-0.854-1.177-1.731-1.73-2.608
			c-1.513-2.32-2.955-4.709-4.34-7.168c-8.715-15.559-15.108-34.175-18.56-56.786h-72.956v101.938h-51.73v25.681h-55.781v-44.229
			h-100.345V867.776h-15.697v-11.969h-2.25v11.969h-13.008v-0.023h-65.085v-11.946h-2.25v11.946h-16.955v60.421l-84.29-0.335v37.292
			h-71.467V734.595h-211.724v246.972h-64.657V848.028h-211.724v721.837h1388.76c0.403-1.938,0.807-3.866,1.211-5.782
			c0.174-0.808,0.347-1.616,0.508-2.412c1.628-7.756,3.186-15.408,4.675-22.945c18.018-90.88,26.743-165.544,28.128-227.154
			C3057.895,1262.991,3050.577,1224.314,3038.793,1193.187z"/>
		<polygon style="fill:#DFEBFA;" points="1636.091,1569.865 1636.091,1561.671 1636.091,1005.343 1635.895,1005.343 
			1533.068,1005.343 1529.756,1005.343 1529.756,1561.671 1529.756,1569.865 1541.032,1569.865 1635.895,1569.865 		"/>
		<rect x="2628.645" y="856.977" style="fill:#DFEBFA;" width="3.901" height="48.419"/>
		<rect x="1926.335" y="717.338" style="fill:#DFEBFA;" width="2.528" height="17.266"/>
		<rect x="1979.932" y="717.338" style="fill:#DFEBFA;" width="2.527" height="17.266"/>
		<rect x="2102.798" y="717.338" style="fill:#DFEBFA;" width="2.527" height="17.266"/>
		<rect x="2054.764" y="717.338" style="fill:#DFEBFA;" width="2.527" height="17.266"/>
	</g>
	<g>
		<path style="fill:#DFEBFA;" d="M1540.917,1561.671l-7.849-556.328l-1.188-84.543h-55.886V809.778
			c-0.865-0.439-1.72-0.889-2.585-1.327h-16.667v-0.058h-96.928v0.058h-0.081v16.643h0.081v11.45h-0.081v16.632h0.081v11.484h-0.081
			v16.643h0.081v0.069l-10.272-0.069v-87.06h-108.771v11.034h-0.058v16.631h0.058v14.635h-0.058v16.632h0.058v11.484h-0.058v16.643
			h0.058v10.63h-0.058v16.644h0.058v10.63h-0.058v16.643h0.058v10.007h-0.058v10.572h0.058v1.154h-122.608v95.243h-45.798v23.984
			h-49.387v-41.32H934.14V923.246h-13.896v-11.184h-1.985v11.184h-11.53v-0.023h-57.617v-11.161h-1.997v11.161H832.11v56.451
			l-74.629-0.312v34.845h-63.273V798.825H506.758v230.733H449.51V904.791H262.059v665.271l0.173,0.404v-0.601h1278.8
			L1540.917,1561.671z"/>
		<path style="fill:#DFEBFA;" d="M262.232,1051.776v518.689l-0.173-0.404c-0.023-0.069-0.058-0.127-0.081-0.196
			c-1.165-2.7-2.32-5.436-3.486-8.194c-41.366-98.221-85.675-235.084-90.049-377.972c0.9-26.535,3.601-53.174,8.438-79.662
			c3.186-17.509,7.317-34.948,12.477-52.261H262.232z"/>
		<rect x="554.986" y="798.823" style="fill:#EEF6FF;" width="139.223" height="36.51"/>
		<rect x="554.986" y="855.018" style="fill:#EEF6FF;" width="139.223" height="36.509"/>
		<rect x="554.986" y="912.386" style="fill:#EEF6FF;" width="139.223" height="36.51"/>
		<rect x="554.986" y="970.668" style="fill:#EEF6FF;" width="139.223" height="36.51"/>
		<rect x="554.986" y="1026.902" style="fill:#EEF6FF;" width="139.223" height="36.51"/>
		<g>
			<rect x="1240.796" y="794.252" style="fill:#EEF6FF;" width="69.612" height="22.172"/>
			<rect x="1240.796" y="828.38" style="fill:#EEF6FF;" width="69.612" height="22.173"/>
			<rect x="1240.796" y="863.22" style="fill:#EEF6FF;" width="69.612" height="22.173"/>
			<rect x="1240.796" y="898.615" style="fill:#EEF6FF;" width="69.612" height="22.173"/>
			<rect x="1240.796" y="932.767" style="fill:#EEF6FF;" width="69.612" height="22.173"/>
		</g>
		<g>
			<rect x="1240.796" y="970.354" style="fill:#EEF6FF;" width="69.612" height="22.172"/>
			<rect x="1240.796" y="1004.482" style="fill:#EEF6FF;" width="69.612" height="22.172"/>
			<rect x="1240.796" y="1039.322" style="fill:#EEF6FF;" width="69.612" height="22.173"/>
			<rect x="1240.796" y="1074.718" style="fill:#EEF6FF;" width="69.612" height="22.172"/>
			<rect x="1240.796" y="1108.869" style="fill:#EEF6FF;" width="69.612" height="22.173"/>
		</g>
		<g>
			<rect x="1359.949" y="808.792" style="fill:#EEF6FF;" width="69.612" height="22.173"/>
			<rect x="1359.949" y="842.92" style="fill:#EEF6FF;" width="69.612" height="22.172"/>
			<rect x="1359.949" y="877.761" style="fill:#EEF6FF;" width="69.612" height="22.172"/>
			<rect x="1359.949" y="913.156" style="fill:#EEF6FF;" width="69.612" height="22.172"/>
			<rect x="1359.949" y="947.308" style="fill:#EEF6FF;" width="69.612" height="22.172"/>
		</g>
		<rect x="1140.998" y="913.156" style="fill:#DFEBFA;" width="3.453" height="45.238"/>
		<rect x="1199.193" y="874.307" style="fill:#DFEBFA;" width="5.372" height="87.608"/>
		<rect x="519.203" y="782.692" style="fill:#DFEBFA;" width="2.238" height="16.131"/>
		<rect x="566.654" y="782.692" style="fill:#DFEBFA;" width="2.238" height="16.131"/>
		<rect x="675.435" y="782.692" style="fill:#DFEBFA;" width="2.238" height="16.131"/>
		<rect x="1251.569" y="781.802" style="fill:#DFEBFA;" width="1.728" height="12.451"/>
		<rect x="1333.229" y="781.802" style="fill:#DFEBFA;" width="1.727" height="12.451"/>
		<rect x="632.908" y="782.692" style="fill:#DFEBFA;" width="2.238" height="16.131"/>
		<g>
			<rect x="1913.338" y="756.116" style="fill:#EEF6FF;" width="138.243" height="28.151"/>
			<rect x="1913.338" y="799.446" style="fill:#EEF6FF;" width="138.243" height="28.151"/>
			<rect x="1913.338" y="843.682" style="fill:#EEF6FF;" width="138.243" height="28.151"/>
			<rect x="1913.338" y="888.621" style="fill:#EEF6FF;" width="138.243" height="28.152"/>
			<rect x="1913.338" y="931.982" style="fill:#EEF6FF;" width="138.243" height="28.151"/>
		</g>
		<g style="opacity:0.4;">
			<rect x="1703.005" y="861.081" style="fill:#EEF6FF;" width="144.19" height="32.857"/>
			<rect x="1703.005" y="911.655" style="fill:#EEF6FF;" width="144.19" height="32.857"/>
			<rect x="1703.005" y="963.285" style="fill:#EEF6FF;" width="144.19" height="32.857"/>
			<rect x="1703.005" y="1015.737" style="fill:#EEF6FF;" width="144.19" height="32.857"/>
			<rect x="1703.005" y="1066.347" style="fill:#EEF6FF;" width="144.19" height="32.857"/>
		</g>
	</g>
	<path style="fill:#AFCDFB;" d="M3031.048,1538.726c-1.489,7.537-3.047,15.189-4.675,22.945c-0.161,0.796-0.334,1.604-0.508,2.412
		l-8.102,0.012l-909.797,1.293H254.846c-0.543-1.235-1.097-2.471-1.65-3.717c-3.313-7.433-6.625-15.085-9.926-22.945H3031.048z"/>
	<polygon style="fill:#D4E4F8;" points="1005.042,610.566 1005.042,1548.017 974.04,1548.017 974.04,608.777 	"/>
	<polygon style="fill:#D4E4F8;" points="2130.624,416.641 2130.624,1548.017 2099.622,1548.017 2099.622,419.076 	"/>
	<g>
		<g>
			<path style="fill:#94B0ED;" d="M487.66,1543.646c-5.541,0-10.748-3.407-12.771-8.911l-132.504-359.402
				c-2.599-7.054,1.012-14.878,8.065-17.478c7.026-2.59,14.878,1.003,17.478,8.066l132.504,359.402
				c2.599,7.054-1.011,14.878-8.065,17.477C490.816,1543.377,489.229,1543.646,487.66,1543.646z"/>
		</g>
		<g>
			<path style="fill:#94B0ED;" d="M588.412,1543.646c-5.541,0-10.748-3.407-12.772-8.911l-132.514-359.402
				c-2.599-7.054,1.012-14.878,8.066-17.478c7.036-2.59,14.888,1.003,17.477,8.066l132.513,359.402
				c2.599,7.054-1.012,14.878-8.065,17.477C591.568,1543.377,589.981,1543.646,588.412,1543.646z"/>
		</g>
		<polygon style="fill:#94B0ED;" points="484.715,1235.972 377.846,1245.502 345.998,1170.625 458.849,1166.541 		"/>
		<path style="fill:#94B0ED;" d="M1037.667,1562.706H407.796c-11.98,0-21.782-9.802-21.782-21.782l0,0
			c0-11.98,9.802-21.782,21.782-21.782h629.871c11.98,0,21.782,9.802,21.782,21.782l0,0
			C1059.45,1552.904,1049.647,1562.706,1037.667,1562.706z"/>
		<g>
			<path style="fill:#94B0ED;" d="M564.354,1301.321h-167.45c-3.007,0-5.448-2.44-5.448-5.448c0-3.007,2.441-5.448,5.448-5.448
				h166.93l35.084-6.804H496.283c-3.007,0-5.449-2.44-5.449-5.447c0-3.008,2.441-5.449,5.449-5.449h159.291
				c2.803,0,5.151,2.135,5.42,4.929c0.269,2.794-1.625,5.328-4.381,5.866l-91.22,17.7
				C565.05,1301.284,564.707,1301.321,564.354,1301.321z"/>
		</g>
	</g>
	<g>
		<path style="fill:#AEC3FF;" d="M2918.629,997.813l-37.454,473.547l-0.247,3.125c-1.889,23.86-22.956,41.837-46.816,39.949
			l-86.35-6.828c-23.867-1.888-41.844-22.955-39.955-46.816l37.701-476.671c1.889-23.86,22.956-41.843,46.816-39.955l39.641,3.136
			l46.709,3.697C2902.54,952.879,2920.518,973.946,2918.629,997.813z"/>
		<path style="fill:#94B0ED;" d="M2908.979,1471.977v70.228c0,11.599-9.485,21.084-21.079,21.084h-187.58
			c-11.593,0-21.079-9.485-21.079-21.084v-70.228c0-11.593,9.486-21.079,21.079-21.079h187.58
			C2899.494,1450.897,2908.979,1460.384,2908.979,1471.977z"/>
		<path style="opacity:0.6;fill:#94B0ED;" d="M2918.629,997.813l-37.454,473.547c-25.806-3.338-49.576-20.462-49.576-20.462
			s27.789-346.156,35.656-423.706c6.261-61.691-23.046-76.442-35.29-79.893l46.709,3.697
			C2902.54,952.879,2920.518,973.946,2918.629,997.813z"/>
	</g>
	<g>
		<g id="man_1_">
			<path style="fill:#EF7E29;" d="M2017.031,1458.098v97.981c0,4.364-3.571,7.935-7.935,7.935h-119.159
				c-4.363,0-7.934-3.57-7.934-7.935v-97.981c0-4.364,3.57-7.935,7.934-7.935h119.159
				C2013.46,1450.163,2017.031,1453.733,2017.031,1458.098z"/>
			<path style="fill:#F99746;" d="M2061.63,1564.012h-119.161c-4.363,0-7.934-3.57-7.934-7.935v-97.979
				c0-4.364,3.57-7.934,7.934-7.934h119.161c4.363,0,7.934,3.569,7.934,7.934v97.979
				C2069.563,1560.441,2065.993,1564.012,2061.63,1564.012z"/>
			<path style="fill:#FFB27D;" d="M1935.513,1255.568c-4.069,7.447-14.209,11.769-26.193,15.055
				c-1.336,0.364-2.692,0.721-4.07,1.063c-21.005,5.244-49.152,2.231-57.306,13.153c-9.055,12.14-19.836,75.879-19.836,75.879
				c-12.978,5.167-12.829,2.637-12.829,2.637c-3.986-17.229-4.288-69.629-3.344-84.062c1.076-16.579,35.13-39.843,64.422-56.877
				c22.376-13.02,41.976-22.403,41.976-22.403c0.608,0.125,1.21,0.266,1.79,0.412
				C1945.938,1206.978,1946.715,1235.073,1935.513,1255.568z"/>
			<path style="fill:#EF7E29;" d="M1920.122,1200.426c-2.769,23.194-7.223,57.465-10.803,70.197
				c-1.336,0.364-2.692,0.721-4.07,1.063c0-0.015-0.007-0.035-0.007-0.049c-4.049-24.306-24.494-45.004-28.886-49.221
				c22.376-13.02,41.976-22.403,41.976-22.403C1918.94,1200.139,1919.542,1200.279,1920.122,1200.426z"/>
			<path style="fill:#FFB27D;" d="M1954.596,1185.818c0,0-30.9,33.899-55.786,35.62c0,0,2.713-9.111,10.167-18.062
				c-1.245-2.07-2.378-4.014-3.412-5.839c-5.924-10.461-8.489-16.838-8.489-16.838l19.942-33.648c0.455,1.238,0.93,2.44,1.434,3.608
				c1.07,2.538,2.244,4.902,3.489,7.098c0.608,1.076,1.23,2.118,1.874,3.125C1936.541,1180.833,1954.596,1185.818,1954.596,1185.818
				z"/>
			<path style="fill:#F4A671;" d="M1905.564,1197.538c-5.924-10.461-8.489-16.838-8.489-16.838l19.942-33.648
				c0.455,1.238,0.93,2.44,1.434,3.608C1920.584,1159.268,1923.297,1180.218,1905.564,1197.538z"/>
			<path style="fill:#FFB27D;" d="M1893.107,1185.509c0,0,35.226-18.581,23.316-40.34s-15.384-38.811-38.378-27.866
				c-22.994,10.943-22.782,21.618-20.573,29.848C1859.681,1155.38,1883.639,1189.782,1893.107,1185.509z"/>
			<path style="fill:#2C3A64;" d="M1917.242,1146.673c0,0-20.518-25.676-52.205-8.209c-21.705,11.965-22.285-13.332-22.018-17.612
				c0,0,17.086-8.496,34.906-16.755C1915.327,1086.763,1917.673,1140.208,1917.242,1146.673z"/>
			<path style="fill:#FFB27D;" d="M1958.085,1378.588c-1.028-0.909-1.686-1.763-1.916-2.531c-0.392-1.245-18.796-1.028-57.8-107.685
				c-6.79-18.559-2.266-46.5,4.468-58.374l4.972-8.3c8.342-0.888,17.152-5.083,24.145-11.789c1.924-1.846,4.203-3.056,6.56-3.832
				c6.95-2.272,14.628-0.728,16.083-0.259c26.117,9.098,46.402,46.57,60.526,101.818c8.812,34.822,20.992,55.66,29.32,85.741
				c2.489,8.985,4.636,18.804,6.244,30.068C2052.147,1413.676,1971.895,1390.804,1958.085,1378.588z"/>
			<path style="fill:#F4A671;" d="M1965.848,1424.6c-9.285,1.237-22.777,1.251-37.612,0.816
				c-40.369-1.189-90.978-5.767-93.944,2.225c-19.367,52.139-88.984,93.122-90.208,112.462c0.227,1.252-17.682-8.336-17.119-8.737
				c0,0,5.667-2.361,61.853-155.188c5.156-14.026,63.795-19.373,99.271-22.202c22.66-1.813,40.327-2.513,40.327-2.513
				s24.186-4.028,48.946-2.3C2002.123,1350.892,2000.394,1419.999,1965.848,1424.6z"/>
			<path style="fill:#FFB27D;" d="M1815.278,1363.355c0,0,17.534,6.337,24.991,2.608c7.459-3.729,0.933-13.362-4.039-13.362
				C1831.258,1352.602,1820.25,1352.79,1815.278,1363.355z"/>
			<path style="fill:#213F7A;" d="M1975.636,1424.599c-9.286,1.237-22.774,1.251-37.612,0.817
				c3.629-11.719,13.184-32.834-0.899-48.483c0,0-15.321-21.065-27.628-24.499c22.656-1.811,28.709-0.97,28.709-0.97
				s24.188-4.028,48.947-2.301C2011.913,1350.891,2010.186,1419.997,1975.636,1424.599z"/>
			<path style="fill:#F99746;" d="M2044.442,1373.377l-0.401,0.35l-85.958,4.859c-1.024-0.907-1.686-1.762-1.912-2.531
				c-0.062-0.198-0.576-0.354-1.545-0.907c-2.743-1.554-9.157-6.229-19.472-23.655c-9.143-15.448-21.352-40.918-36.785-83.12
				c-6.791-18.561-2.267-46.5,4.468-58.373c0,0,4.926,2.73,11.065-0.25c14.824-7.192,39.666-24.261,40.69-23.93
				c26.122,9.096,46.405,46.57,60.531,101.816C2023.932,1322.457,2036.112,1343.298,2044.442,1373.377z"/>
			<path style="fill:#EF7E29;" d="M1993.561,1267.838l-42.127,39.541l-25.731-39.644l9.452,83.757
				c10.314,17.426,16.729,22.102,19.472,23.655c23.808,1.347,58.363,0.808,61.131-13.327
				C2020.008,1340.096,1993.561,1267.838,1993.561,1267.838z"/>
			<path style="fill:#FFB27D;" d="M2030.95,1447.405c-77.282,18.409-149.483-27.283-152.161-14.239
				c-8.303,40.422-50.25,99.002-51.232,105.992c-0.146,1.029-18.497,2.598-18.497,2.598s18.082-142.777,33.364-161.267
				c15.783-19.094,157.715-11.41,157.715-11.41C2055.489,1358.113,2065.289,1439.226,2030.95,1447.405z"/>
			<path style="fill:#213F7A;" d="M1940.193,1367.487c0,0,37.771,39.105,41.967,42.951s20.277,2.447,20.277,2.447
				s-17.598,2.331-17.598,5.361s11.188,35.195,15.384,35.195s35.429-1.864,42.888-5.594c7.458-3.729,17.248-45.219,2.098-78.316
				l-12.179-29.368C2033.03,1340.164,2015.757,1365.441,1940.193,1367.487z"/>
			<g>
				<path style="fill:#94B0ED;" d="M1940.868,1305.159c-3.452-12.87-17.09-20.396-30.462-16.81c-3.421,0.917-6.49,2.477-9.109,4.5
					l-5.268,3.821l0.643,0.822c-4.405,5.759-6.204,13.281-4.228,20.652c3.452,12.87,17.09,20.396,30.462,16.81
					c0.837-0.225,1.654-0.487,2.449-0.786l0.61,0.781l5.971-4.424l-0.004-0.005
					C1939.61,1324.645,1943.446,1314.771,1940.868,1305.159z"/>
			</g>
			<path style="fill:#AEC3FF;" d="M1887.449,1321.781c-3.451-12.869,4.591-26.21,17.962-29.796
				c13.372-3.586,27.01,3.939,30.462,16.81c3.451,12.87-4.591,26.21-17.962,29.796
				C1904.539,1342.178,1890.901,1334.651,1887.449,1321.781z"/>
			<path style="fill:#789CDD;" d="M1916.318,1315.075c-0.252-2.874-3.744-5.716-7.503-4.327
				c-1.522,0.562-41.823,25.783-41.823,25.783l8.622,10.675l39.108-27.919C1914.723,1319.287,1916.573,1317.99,1916.318,1315.075z"
				/>
			<path style="fill:#FFB27D;" d="M1995.327,1366.735c-18.188,18.174-101.622-33.563-101.622-33.563l9.439-16.433l54.423,12.705
				c-15.223-22.222-25.32-44.095-31.865-61.709c-8.496-22.845-11.021-38.521-11.021-38.521
				c-4.663-18.642,36.403-42.249,56.409-23.306c6.671,6.321,13.614,24.299,19.229,46.129
				C2001.529,1295.649,2007.444,1354.624,1995.327,1366.735z"/>
			<path style="fill:#F4A671;" d="M1987.689,1242.43c-19.254,4.529-57.314,14.702-61.985,25.305c0,0,35.521-15.25,70.208,9.672
				L1987.689,1242.43z"/>
			<path style="fill:#F99746;" d="M1990.32,1252.037c-36.689-3.433-60.807,12.916-64.618,15.698
				c-8.496-22.845-11.021-38.521-11.021-38.521c-4.663-18.642,36.403-42.249,56.409-23.306
				C1977.762,1212.229,1984.705,1230.207,1990.32,1252.037z"/>
			<path style="fill:#2C3A64;" d="M1747.782,1563.451h-9.537c-3.195-0.504-5.554-1.428-8.83-1.856
				c-4.977-0.652-7.267,1.387-7.723,1.856c-0.062,0.061-0.088,0.095-0.088,0.095h-40.515c-1.02-1.454-0.041-4.826,0.918-7.308
				c0.646-1.686,2.053-2.964,3.793-3.467c4.296-1.244,12.766-2.352,20.522-9.374c4.364-3.942,21.072-14.499,21.072-14.499
				l0.089-0.021c0.367,0.007,2.114,0.544,9.714,6.961c3.929,3.311,10.624-4.677,10.624-4.677s1.258,1.04,2.196,2.977
				c0.755,1.53,1.305,3.631,0.87,6.221c-0.605,3.65,1.346,10.434,2.902,15.022c0.945,2.78,1.74,4.752,1.74,4.752
				S1755.986,1562.425,1747.782,1563.451z"/>
			<path style="fill:#2C3A64;" d="M1832.465,1563.445h-10.058c-3.369-0.53-5.856-1.505-9.312-1.957
				c-5.248-0.688-7.664,1.463-8.145,1.957c-0.064,0.064-0.093,0.101-0.093,0.101h-42.726c-1.076-1.534-0.043-5.09,0.968-7.706
				c0.681-1.778,2.165-3.126,4-3.656c4.53-1.313,13.463-2.48,21.643-9.886c4.603-4.158,22.223-15.291,22.223-15.291l0.094-0.021
				c0.387,0.007,2.229,0.573,10.243,7.341c4.145,3.491,11.205-4.932,11.205-4.932s1.326,1.097,2.315,3.14
				c0.796,1.612,1.377,3.828,0.918,6.56c-0.638,3.85,1.419,11.004,3.061,15.843c0.997,2.932,1.836,5.011,1.836,5.011
				S1841.117,1562.363,1832.465,1563.445z"/>
			<g>
				<path style="fill:#94B0ED;" d="M1910.097,1328.251c-3.755-14-18.591-22.188-33.138-18.286c-3.722,0.998-7.061,2.694-9.911,4.896
					l-5.73,4.157l0.7,0.895c-4.793,6.265-6.75,14.448-4.6,22.467c3.755,14.001,18.592,22.188,33.138,18.287
					c0.912-0.245,1.8-0.531,2.665-0.856l0.664,0.851l6.495-4.813l-0.004-0.005C1908.728,1349.449,1912.9,1338.709,1910.097,1328.251
					z"/>
			</g>
			<path style="fill:#AEC3FF;" d="M1851.984,1346.334c-3.755-14,4.994-28.513,19.54-32.414c14.547-3.9,29.383,4.286,33.138,18.287
				c3.755,14-4.993,28.513-19.54,32.414S1855.739,1360.335,1851.984,1346.334z"/>
			<g>
				<path style="fill:#94B0ED;" d="M1886.965,1335.886c-1.219-4.545-6.035-7.203-10.758-5.937c-1.209,0.324-2.293,0.875-3.218,1.589
					l-1.86,1.351l0.228,0.29c-1.557,2.034-2.191,4.69-1.493,7.294c1.219,4.546,6.035,7.203,10.758,5.938
					c0.296-0.08,0.584-0.173,0.865-0.278l0.216,0.276l2.108-1.563l-0.001-0.002
					C1886.521,1342.769,1887.876,1339.281,1886.965,1335.886z"/>
			</g>
			<path style="fill:#CADAFF;" d="M1868.099,1341.757c-1.219-4.545,1.621-9.257,6.344-10.523s9.54,1.392,10.759,5.937
				c1.219,4.546-1.621,9.258-6.344,10.523C1874.135,1348.961,1869.317,1346.303,1868.099,1341.757z"/>
		</g>
		<g>
			<g>
				<path style="fill:#94B0ED;" d="M2104.564,1548.352c5.064-12.324-1.21-26.582-14.015-31.844c-3.276-1.347-6.662-1.97-9.973-1.951
					l-6.506-0.158l0.013,1.044c-6.996,1.905-12.99,6.793-15.891,13.852c-5.065,12.325,1.209,26.582,14.014,31.844
					c0.803,0.33,1.612,0.616,2.425,0.861l0.012,0.992l7.43,0.105v-0.006C2091.742,1563.077,2100.781,1557.557,2104.564,1548.352z"/>
			</g>
			<path style="fill:#AEC3FF;" d="M2052.017,1529.153c5.064-12.324,19.551-18.049,32.356-12.786
				c12.805,5.262,19.079,19.52,14.015,31.844c-5.065,12.324-19.552,18.049-32.356,12.787
				C2053.226,1555.735,2046.951,1541.479,2052.017,1529.153z"/>
			<path style="fill:#7A9EDD;" d="M2079.033,1541.339c1.544-2.438,0.491-6.815-3.338-7.992c-1.552-0.478-48.891-4.88-48.891-4.88
				l0.378,13.717l48.026,1.535C2075.209,1543.719,2077.467,1543.811,2079.033,1541.339z"/>
			<path style="fill:#94B0ED;" d="M2066.093,1548.037c5.51-13.407-1.316-28.917-15.246-34.642
				c-3.563-1.465-7.247-2.143-10.849-2.122l-7.077-0.172l0.014,1.136c-7.611,2.072-14.132,7.39-17.287,15.068
				c-5.511,13.407,1.315,28.917,15.246,34.642c0.872,0.359,1.753,0.671,2.637,0.937l0.013,1.079l8.083,0.115v-0.006
				C2052.144,1564.058,2061.978,1558.051,2066.093,1548.037z"/>
			<path style="fill:#AEC3FF;" d="M2008.928,1527.153c5.51-13.407,21.27-19.636,35.199-13.911
				c13.931,5.726,20.756,21.234,15.246,34.643c-5.51,13.407-21.27,19.635-35.199,13.91S2003.418,1540.561,2008.928,1527.153z"/>
			<path style="fill:#94B0ED;" d="M2043.073,1540.071c1.789-4.353-0.427-9.388-4.949-11.246c-1.157-0.476-2.353-0.696-3.522-0.689
				l-2.298-0.056l0.005,0.369c-2.471,0.672-4.588,2.398-5.612,4.892c-1.789,4.353,0.427,9.389,4.949,11.247
				c0.284,0.116,0.569,0.218,0.856,0.304l0.004,0.351l2.624,0.037v-0.002C2038.545,1545.272,2041.737,1543.322,2043.073,1540.071z"
				/>
			<path style="fill:#CADAFF;" d="M2024.515,1533.291c1.788-4.353,6.905-6.374,11.428-4.516s6.738,6.894,4.949,11.247
				c-1.788,4.353-6.905,6.374-11.428,4.516S2022.726,1537.645,2024.515,1533.291z"/>
		</g>
	</g>
	<g>
		<g>
			<g>
				<path style="fill:#EF7E29;" d="M1222.434,1237.255c2.396-15.221,17.157-25.542,32.972-23.054
					c4.046,0.637,7.766,2.055,11.026,4.061l6.524,3.751l-0.639,1.024c5.77,6.083,8.758,14.513,7.386,23.23
					c-2.396,15.221-17.157,25.542-32.972,23.054c-0.991-0.156-1.962-0.358-2.912-0.605l-0.607,0.974l-7.406-4.357l0.004-0.006
					C1226.263,1259.508,1220.645,1248.623,1222.434,1237.255z"/>
			</g>
			<path style="fill:#F99746;" d="M1285.892,1249.838c2.395-15.221-8.483-29.577-24.297-32.066
				c-15.814-2.488-30.577,7.833-32.972,23.054c-2.396,15.221,8.483,29.577,24.297,32.065
				C1268.734,1275.38,1283.496,1265.059,1285.892,1249.838z"/>
			<path style="fill:#EF7E29;" d="M1251.876,1245.656c-0.063-3.336,3.606-7.03,8.098-5.894c1.82,0.46,51.245,24.535,51.245,24.535
				l-8.609,13.329l-48.383-27.322C1254.226,1250.305,1251.939,1249.039,1251.876,1245.656z"/>
		</g>
		<path style="fill:#FFB27D;" d="M1282.279,1262.556c-0.744-0.11-16.249,7.369-24.188-3.573c-3.639-5.015-0.877-9.742,2.623-11.109
			c2.671-1.043,7.073,2.068,8.801,3.832C1272.389,1254.637,1282.279,1262.556,1282.279,1262.556z"/>
		<path style="fill:#233862;" d="M1236.525,1561.196c-5.271-3.218-2.272-27.219-2.272-27.219s24.562-19.649,27.939-4.605
			s23.333,21.798,34.693,23.641c7.842,1.271,10.27,5.614,11.021,8.184H1236.525z"/>
		<path style="fill:#213F7A;" d="M1264.352,1541.943c-8.024,2.554-23.367,10.371-33.11,6.698
			c-6.298-2.375-41.505-104.21-43.788-148.747c-0.114-2.168-0.435-4.914-0.941-8.152c-0.243-1.591-0.535-3.295-0.863-5.114
			c-3.26-18.011-10.364-46.577-17.418-75.422c-9.515-38.931-18.938-78.375-18.681-93.104c0.507-28.98,86.378-6.069,86.378-6.069
			s5.143,20.714,6.791,51.463c0.114,2.189,0.214,4.437,0.292,6.726c2.332,68.332,8.737,183.748,26.177,263.898
			C1269.923,1537.521,1267.683,1540.881,1264.352,1541.943z"/>
		<path style="fill:#233862;" d="M1242.718,1263.495l-56.206,128.247c-0.243-1.591-0.535-3.295-0.863-5.114
			c-3.26-18.011-10.364-46.577-17.418-75.422l-10.014-100.102l77.711,0.928C1235.928,1212.032,1241.07,1232.746,1242.718,1263.495z"
			/>
		<path style="fill:#FFB27D;" d="M1195.048,1020.244c0,0,28.769,1.034,39.468,13.79c10.699,12.755,23.538,103.868,30.671,122.549
			c7.133,18.68,15.692,84.271,15.692,86.782l-11.551,2.271c0,0-31.987-67.695-34.826-82.587
			c-2.839-14.891-37.601-88.814-37.339-93.936C1197.425,1063.991,1195.048,1020.244,1195.048,1020.244z"/>
		<path style="fill:#FFB27D;" d="M1122.828,1054.525c1.237-9.527-8.541-16.659-17.236-12.57
			c-10.954,5.152-23.051,12.334-26.713,20.161c-7.164,15.314-22.916,81.938-21.69,106.708c0,0,13.396,3.572,22.943-0.515
			c9.547-4.088,41.678-105.949,41.678-105.949L1122.828,1054.525z"/>
		<path style="fill:#233862;" d="M1160.096,1561.356c0,0-1.522-11.857-5.047-18.907c-3.525-7.051-25.958-2.564-25.958-2.564
			s-4.486,3.846-5.448,21.792L1160.096,1561.356z"/>
		<path style="fill:#213F7A;" d="M1204.755,1218.203l-45.393,328.993c0,0-19.934,4.807-35.438,0.962
			c0,0-13.29-174.975-12.182-217.275c1.107-42.302,1.836-102.014,6.748-115.439
			C1126.202,1194.361,1204.755,1218.203,1204.755,1218.203z"/>
		<path style="fill:#FFB27D;" d="M1188.148,1005.074l-0.023,4.263c0,0,1.161,13.329-15.252,15.274
			c-16.413,1.952-28.847-5.197-28.402-15.482c1.479-7.964,3.102-13.433,3.211-20.023c0.041-2.449-0.127-5.048-0.583-7.981
			l31.804-0.635l9.367,1.53L1188.148,1005.074z"/>
		<path style="fill:#F4A671;" d="M1188.27,982.02v16.707c-12.153,4.369-36.762-3.031-38.786-12.809l29.418-5.428L1188.27,982.02z"/>
		<path style="fill:#FFB27D;" d="M1144.662,976.007c3.69,19.859,29.315,19.207,40.389,17.958c3.117-0.347,5.077-0.744,5.077-0.744
			c3.514-0.938,5.475-6.474,6.385-13.724c1.808-14.348-0.476-35.409-2.899-40.795c-3.648-8.105-10.519-16.872-36.325-10.547
			C1131.479,934.485,1139.927,950.563,1144.662,976.007z"/>
		<path style="fill:#FFFFFF;" d="M1177.459,980.722c0,0,2.133,3.733,9.406,2.969c4.801-0.504,5.198-4.612,5.198-4.612
			S1185.181,977.556,1177.459,980.722z"/>
		<path style="fill:#FFFFFF;" d="M1233.003,1089.75c18.382-1.498,27.19-10.305,27.19-10.305s-16.583-45.411-25.691-53.212
			c-9.108-7.8-46.25-14.588-46.252-14.589c-0.293-0.181-0.478-0.279-0.522-0.279l-0.009,0.014c0,4.125-6.501,11.735-16.512,12.392
			c-11.883,0.777-26.736-7.799-26.736-14.642c0,0-28.316,2.001-43.406,10.154c-15.089,8.152-33.1,48.631-33.1,48.631
			s6.108,19.973,43.711,26.392l-2.697,133.026c69.425,22.966,133.382-0.714,133.382-0.714c1.498,0.028-8.192-76.234-8.678-95.011
			C1233.366,1119.39,1233.124,1105.502,1233.003,1089.75z"/>
		<path style="fill:#233862;" d="M1199.956,938.109c4.542-4.628,3.326-12.323-2.399-15.367c-5.776-3.07-14.849-7.509-22.6-9.61
			c-11.444-3.102-22.773,0.447-27.226,2.793c0.12-0.718,0.406-1.697,1.086-2.679c0,0-2,1.418-2.294,3.399
			c-0.206,0.151-0.298,0.256-0.245,0.292c0,0-2.267-0.415-3.723,0.241c0,0,1.02-0.146,1.383,0.51
			c0.039,0.069,0.096,0.127,0.163,0.18c-16.962,8.196-22.641,28.254-13.07,41.206c5.908,7.995,16.464,24.269,16.464,24.269
			s-1.847-4.439-2.199-8.095c-0.101-1.054,0.187-2.157,0.586-3.15c0.792-1.972,0.759-4.179-0.033-6.151
			c-1.158-2.882-1.434-5.858,1.023-7.087c2.864-1.433,5.113,0.652,6.551,2.805c1.141,1.707,3.291,2.443,5.189,1.663
			c0.06-0.024,0.12-0.049,0.18-0.075c7.164-2.985,1.194-11.343,7.462-16.418c6.269-5.075,22.988-2.438,28.471-4.536
			C1196.594,940.99,1198.433,939.662,1199.956,938.109z"/>
		<g>
			<g>
				<path style="fill:#EF7E29;" d="M1260.641,1260.046c2.606-16.558,18.665-27.786,35.869-25.078
					c4.401,0.692,8.448,2.234,11.995,4.417l7.098,4.08l-0.695,1.114c6.277,6.618,9.528,15.788,8.035,25.271
					c-2.606,16.559-18.665,27.786-35.869,25.079c-1.078-0.17-2.135-0.391-3.168-0.658l-0.661,1.059l-8.057-4.739l0.004-0.007
					C1264.806,1284.254,1258.695,1272.414,1260.641,1260.046z"/>
			</g>
			<path style="fill:#F99746;" d="M1329.674,1273.734c2.606-16.558-9.228-32.176-26.432-34.883
				c-17.204-2.708-33.263,8.521-35.869,25.078c-2.605,16.559,9.229,32.177,26.433,34.884
				C1311.009,1301.521,1327.068,1290.293,1329.674,1273.734z"/>
			<g>
				<path style="fill:#EF7E29;" d="M1288.173,1265.997c0.846-5.376,6.06-9.021,11.645-8.142c1.429,0.225,2.743,0.726,3.894,1.434
					l2.304,1.325l-0.226,0.361c2.038,2.148,3.093,5.126,2.609,8.205c-0.846,5.376-6.06,9.021-11.646,8.142
					c-0.35-0.055-0.693-0.126-1.028-0.213l-0.214,0.344l-2.616-1.539l0.001-0.002
					C1289.525,1273.856,1287.541,1270.013,1288.173,1265.997z"/>
			</g>
			<path style="fill:#F99746;" d="M1310.585,1270.441c0.846-5.376-2.996-10.446-8.582-11.325s-10.799,2.767-11.645,8.142
				c-0.846,5.376,2.996,10.446,8.582,11.326C1304.525,1279.463,1309.739,1275.817,1310.585,1270.441z"/>
		</g>
		<path style="fill:#FFB27D;" d="M1057.19,1168.824c0,0,46.796,17.851,111.125,10.005v-13.314c0,0-69.321-13.79-82.874-25.916
			C1085.44,1139.599,1061.037,1149.784,1057.19,1168.824z"/>
		<g>
			<g>
				<g>
					<path style="fill:#EF7E29;" d="M1219.746,1146.992c-3.991-14.882-19.762-23.585-35.224-19.438
						c-3.956,1.061-7.505,2.863-10.535,5.203l-6.091,4.419l0.744,0.951c-5.095,6.659-7.174,15.357-4.889,23.882
						c3.991,14.882,19.762,23.585,35.225,19.438c0.969-0.26,1.913-0.563,2.832-0.909l0.707,0.903l6.904-5.115l-0.004-0.005
						C1218.292,1169.524,1222.728,1158.108,1219.746,1146.992z"/>
				</g>
				<path style="fill:#F99746;" d="M1157.975,1166.214c-3.991-14.882,5.308-30.309,20.771-34.455
					c15.463-4.147,31.233,4.556,35.224,19.438c3.991,14.882-5.308,30.308-20.771,34.455
					C1177.736,1189.799,1161.966,1181.096,1157.975,1166.214z"/>
				<path style="fill:#EF7E29;" d="M1191.357,1158.459c-0.291-3.323-4.329-6.609-8.675-5.004
					c-1.761,0.649-48.363,29.815-48.363,29.815l9.97,12.344l45.223-32.284C1189.512,1163.33,1191.652,1161.83,1191.357,1158.459z"/>
			</g>
			<path style="fill:#FFB27D;" d="M1181.171,1181.209c0.238-0.713,13.909-11.175,7.728-23.197c-2.833-5.511-8.298-5.18-11.098-2.673
				c-2.136,1.913-1.346,7.245-0.552,9.583C1178.568,1168.81,1181.171,1181.209,1181.171,1181.209z"/>
			<g>
				<g>
					<path style="fill:#EF7E29;" d="M1184.163,1173.695c-4.342-16.189-21.498-25.657-38.319-21.146
						c-4.303,1.154-8.164,3.115-11.46,5.66l-6.626,4.808l0.81,1.035c-5.542,7.244-7.805,16.707-5.318,25.979
						c4.342,16.189,21.498,25.657,38.319,21.146c1.054-0.282,2.082-0.613,3.081-0.989l0.769,0.983l7.511-5.565l-0.005-0.006
						C1182.581,1198.208,1187.406,1185.788,1184.163,1173.695z"/>
				</g>
				<path style="fill:#F99746;" d="M1116.964,1194.605c-4.342-16.189,5.775-32.971,22.596-37.482
					c16.821-4.511,33.977,4.957,38.319,21.146c4.342,16.189-5.775,32.971-22.596,37.482
					C1138.462,1220.263,1121.306,1210.796,1116.964,1194.605z"/>
				<g>
					<path style="fill:#EF7E29;" d="M1157.415,1182.524c-1.41-5.257-6.979-8.33-12.44-6.865c-1.397,0.374-2.651,1.011-3.721,1.837
						l-2.151,1.562l0.263,0.336c-1.8,2.352-2.534,5.424-1.727,8.435c1.409,5.256,6.979,8.33,12.44,6.865
						c0.342-0.092,0.676-0.199,1-0.321l0.25,0.319l2.438-1.807l-0.002-0.002C1156.901,1190.482,1158.468,1186.45,1157.415,1182.524z
						"/>
				</g>
				<path style="fill:#F99746;" d="M1135.599,1189.313c-1.41-5.256,1.875-10.704,7.336-12.169c5.461-1.465,11.031,1.609,12.44,6.865
					c1.41,5.257-1.875,10.704-7.336,12.169S1137.008,1194.569,1135.599,1189.313z"/>
			</g>
		</g>
	</g>
	<g>
		<path style="fill:#F4A671;" d="M1480.785,1036.046c0,0-34.011,1.987-37.708,16.035c-5.896,22.406-11.406,74.623-11.406,74.623
			l-34.317-42.554l-12.354,5.948c0,0,29.284,78.701,53.993,75.041C1463.701,1161.479,1480.785,1036.046,1480.785,1036.046z"/>
		<path style="fill:#2C3A64;" d="M1515.72,930.963c0,0,4.436-17.745,30.499-12.2c0,0-12.477-1.571-15.896,3.235
			c0,0,9.889-4.529,16.081-0.739c6.192,3.789,7.209,16.543,6.285,20.425c-0.924,3.882-7.763,15.435-12.292,15.435
			s-9.889-3.974-9.889-3.974L1515.72,930.963z"/>
		<path style="fill:#2C3A64;" d="M1468.862,949.263c0,0,32.994-39.648,50.462-14.279c0,0,13.031,5.406,17.745,27.587
			c4.809,22.631-10.24,39.833-18.022,35.582c-4.991-2.727-8.769,6.008-8.769,6.008L1468.862,949.263z"/>
		<path style="fill:#FFB27D;" d="M1479.232,1036.231c-0.126,0.056,12.129,6.42,21.347,3.898c8.671-2.364,19.661-5.271,19.542-5.297
			c-3.672-0.729-10.055-14.111-9.978-35.795l-1.66,0.327l-27.912,5.527c0,0,0.635,8.784,0.654,17.06
			C1481.244,1028.899,1480.823,1035.489,1479.232,1036.231z"/>
		<path style="fill:#F4A671;" d="M1480.571,1004.892c0,0,0.635,8.784,0.654,17.06c15.619-0.44,23.875-14.688,27.258-22.586
			L1480.571,1004.892z"/>
		<path style="fill:#2C3A64;" d="M1511.366,996.326c0,0,8.186-12.934,10.15-23.992c1.402-7.896-2.619-37.162-32.028-32.947
			c0,0-8.542,0.842-16.57,6.265c-6.385,4.313-15.601,13.622-5.297,39.161l2.677,8.627L1511.366,996.326z"/>
		<path style="fill:#FFB27D;" d="M1475.355,1012.727c0,0,36.955,0.609,36.98-22.41c0.025-23.019,4.812-38.444-18.782-39.806
			c-23.594-1.363-28.188,7.416-30.065,15.098C1461.612,973.29,1465.743,1011.976,1475.355,1012.727z"/>
		<path style="fill:#2C3A64;" d="M1476.723,949.947c0,0,10.118,27.006,25.646,30.999c15.528,3.993,22.264-0.167,22.264-0.167
			s-11.911-9.462-14.383-25.979C1510.25,954.8,1484.355,937.093,1476.723,949.947z"/>
		<path style="fill:#2C3A64;" d="M1479.23,952.14c0,0-7.556,6.029-9.398,11.891c-1.842,5.862-2.671,17.929-6.188,17.519
			c0,0-7.623-18.356,0.944-28.74C1473.672,941.799,1479.23,952.14,1479.23,952.14z"/>
		<path style="fill:#FFB27D;" d="M1450.685,1202.082c18.793-60.072-1.802-73.131,0.156-103.191
			c1.958-30.062,25.231-62.383,25.231-62.383s28.192-2.852,42.976-1.849c13.153,0.894,35.678,41.823,30.066,79.608
			c-0.693,4.686-1.819,9.321-3.449,13.83c-6.926,19.131-10.492,26.933-10.32,34.164c0.216,9.144,6.416,17.362,19.375,46.425
			C1561.878,1224.745,1431.499,1263.435,1450.685,1202.082z"/>
		<path style="fill:#FFB27D;" d="M1499.335,1337.217c-5.232,29.618-9.071,51.827-9.071,51.827
			c9.791,40.15-4.934,91.647-17.069,124.046c-2.773,7.4-5.408,13.813-7.592,18.861c0,0-0.007,0.015-0.015,0.038
			c-0.008,0.007-0.015,0.022-0.023,0.046c-0.016,0.038-0.031,0.084-0.054,0.13l-0.008,0.008c-0.054,0.146-0.123,0.291-0.184,0.437
			c0,0.016-0.008,0.031-0.016,0.046c-3.187,7.339-5.316,11.606-5.316,11.606l-17.888,0.805c0,0,1.371-7.699,2.896-20.685
			c0.008-0.054,0.016-0.092,0.016-0.13c0.49-4.191,0.996-8.926,1.479-14.135c2.719-29.472,4.612-73.89-1.747-118.622
			c-15.529-109.237,4.987-182.438,4.987-182.438l65.7,21.198l3.064,0.98C1512.649,1262.187,1505.142,1304.283,1499.335,1337.217z"/>
		<path style="fill:#FFB27D;" d="M1518.146,1034.105c0,0,31.585,3.234,35.282,11.367c11.932,26.251,23.845,114.787,27.172,122.551
			c3.327,7.763,13.494,50.461,22.181,71.533l-11.091,3.327c0,0-36.599-60.722-39.926-76.524
			c-3.327-15.803-21.571-80.077-21.571-80.077L1518.146,1034.105z"/>
		<path style="fill:#FFFFFF;" d="M1543.049,1106.665l0.432,27.427c0,0-24.083-6.998-49.796-9.133
			c-6.266-0.521-12.632-0.749-18.765-0.521c-7.597,0.277-14.845,1.27-21.122,3.288c0,0-4.065-17.745-8.135-38.816
			c-0.144-0.76-0.26-1.515-0.349-2.263c-2.351-20.046,15.46-36.427,7.974-44.445c0,0,6.516-3.565,22.786-5.695
			c0,0-12.477,21.998-11.368,27.544c1.109,5.545,49.353,0.554,52.68-2.496c3.328-3.05,8.596-26.406,8.596-26.406
			s17.085,1.869,25.436,7.946c0,0-5.645,7.054-9.188,15.51c-1.042,2.484-1.902,5.086-2.384,7.664
			c-1.292,6.904-4.713,20.057,3.05,30.404L1543.049,1106.665z"/>
		<path style="fill:#F4A671;" d="M1511.838,1266.174c-5.839,30.948-6.699,38.113-12.504,71.046
			c-36.05-62.928-30.749-79.363-30.749-79.363L1511.838,1266.174z"/>
		<path style="fill:#FFB27D;" d="M1624.989,1523.646c-0.038,1.164-0.092,2.283-0.138,3.363c-0.521,10.549-1.417,16.984-1.417,16.984
			l-17.253-5.991c0,0-0.813-2.49-2.244-6.78c-0.582-1.746-1.272-3.792-2.046-6.098c-0.016-0.031-0.022-0.046-0.022-0.046
			c-1.41-4.176-3.126-9.193-5.072-14.755c-11.744-33.67-31.731-87.572-43.368-99.976c-33.287-35.47-82.286-190.16-82.286-190.16
			l66.206-21.48c9.821,9.515,17.796,27.326,24.224,48.302c16.218,52.922,22.515,125.961,23.366,136.533v0.03
			c0.062,0.813,0.498,1.518,1.05,2.13c30.981,34.475,38.244,84.692,39.117,119.273
			C1625.272,1511.909,1625.196,1518.223,1624.989,1523.646z"/>
		<path style="fill:#213F7A;" d="M1496.651,1271.753l-11.495-1.414c-5.557-1.847-10.985-3.101-16.031-3.943
			c-16.275-2.723-28.636-1.147-28.636-1.147c4.99-53.373,12.222-70.396,12.222-70.396l24.011,42.027L1496.651,1271.753z"/>
		<path style="fill:#233862;" d="M1496.651,1271.753l-11.495-1.414c-5.557-1.847-10.985-3.101-16.031-3.943
			c-0.727-10.247,3.399-21.227,7.597-29.517L1496.651,1271.753z"/>
		<path style="fill:#213F7A;" d="M1452.712,1194.848c0,0,15.873,11.992,31.954,10.883c16.082-1.108,63.031-11.83,63.031-11.83
			s8.698,12.635,14.787,37.708c6.285,25.878,6.285,45.102,6.285,45.102s-55.083-7.209-77.264,4.437L1452.712,1194.848z"/>
		<path style="fill:#2C3A64;" d="M1477.827,953.052c0,0,7.209,28.281,26.802,37.338c0,0-19.593-17.375-21.257-36.044
			C1481.709,935.677,1477.827,953.052,1477.827,953.052z"/>
		<g>
			<path style="fill:#EF7E29;" d="M1641.706,1246.63c-2.746-10.236-13.593-16.223-24.229-13.37c-2.721,0.73-5.162,1.97-7.246,3.579
				l-4.189,3.04l0.512,0.654c-3.505,4.58-4.936,10.563-3.363,16.427c2.746,10.236,13.594,16.223,24.229,13.37
				c0.666-0.179,1.315-0.388,1.948-0.626l0.485,0.622l4.749-3.519l-0.003-0.004
				C1640.705,1262.129,1643.756,1254.276,1641.706,1246.63z"/>
		</g>
		<path style="fill:#F99746;" d="M1599.217,1259.852c-2.746-10.236,3.651-20.848,14.287-23.699
			c10.636-2.853,21.483,3.133,24.229,13.37c2.745,10.236-3.651,20.848-14.287,23.699
			C1612.81,1276.074,1601.962,1270.088,1599.217,1259.852z"/>
		<path style="fill:#EF7E29;" d="M1622.179,1254.518c-0.2-2.285-2.978-4.546-5.968-3.442c-1.211,0.447-33.266,20.509-33.266,20.509
			l6.858,8.49l31.106-22.206C1620.909,1257.868,1622.382,1256.836,1622.179,1254.518z"/>
		<g>
			<path style="fill:#EF7E29;" d="M1361.618,1058.471c2.746-10.236,13.593-16.223,24.229-13.37c2.721,0.729,5.162,1.97,7.246,3.579
				l4.19,3.04l-0.512,0.654c3.504,4.58,4.935,10.563,3.363,16.427c-2.746,10.236-13.593,16.223-24.229,13.37
				c-0.667-0.179-1.316-0.388-1.948-0.626l-0.486,0.622l-4.749-3.519l0.003-0.004
				C1362.618,1073.97,1359.567,1066.117,1361.618,1058.471z"/>
		</g>
		<path style="fill:#F99746;" d="M1404.106,1071.692c2.746-10.236-3.651-20.848-14.287-23.7
			c-10.636-2.852-21.483,3.135-24.229,13.371s3.651,20.848,14.287,23.699C1390.514,1087.915,1401.361,1081.93,1404.106,1071.692z"/>
		<path style="fill:#EF7E29;" d="M1381.145,1066.358c0.2-2.286,2.978-4.546,5.968-3.442c1.211,0.447,33.266,20.509,33.266,20.509
			l-6.858,8.491l-31.106-22.207C1382.414,1069.709,1380.942,1068.677,1381.145,1066.358z"/>
		<path style="fill:#F4A671;" d="M1385.069,1090.168c0,0-11.439-14.185-3.203-21.506c8.236-7.32,18.913-5.186,19.218-0.915
			s-3.661,16.473-3.661,16.473L1385.069,1090.168z"/>
		<path style="fill:#FFB27D;" d="M1601.994,1237.708c0,0,3.374,7.948,6.886,10.167c3.513,2.218,8.503,7.578,7.579,11.83
			c-0.925,4.251-1.849,10.905-6.285,10.905s-14.787-19.593-16.081-23.29s-2.403-4.437-2.403-4.437L1601.994,1237.708z"/>
		<g>
			<path style="fill:#EF7E29;" d="M1617.23,1264.998c-2.987-11.136-14.788-17.648-26.358-14.545
				c-2.96,0.794-5.616,2.143-7.883,3.894l-4.558,3.307l0.557,0.712c-3.813,4.982-5.369,11.491-3.658,17.869
				c2.986,11.137,14.787,17.648,26.357,14.546c0.725-0.194,1.432-0.422,2.119-0.681l0.529,0.676l5.166-3.827l-0.004-0.005
				C1616.142,1281.858,1619.461,1273.315,1617.23,1264.998z"/>
		</g>
		<path style="fill:#F99746;" d="M1571.008,1279.381c-2.987-11.136,3.972-22.679,15.542-25.782
			c11.571-3.103,23.371,3.409,26.358,14.546c2.986,11.136-3.973,22.679-15.543,25.781
			C1585.795,1297.029,1573.994,1290.518,1571.008,1279.381z"/>
		<g>
			<path style="fill:#EF7E29;" d="M1598.832,1271.07c-0.97-3.615-4.801-5.729-8.557-4.722c-0.961,0.258-1.823,0.695-2.56,1.264
				l-1.479,1.074l0.181,0.23c-1.238,1.618-1.743,3.731-1.188,5.802c0.969,3.615,4.801,5.729,8.557,4.723
				c0.235-0.063,0.465-0.138,0.688-0.222l0.171,0.22l1.677-1.242l-0.001-0.002
				C1598.478,1276.545,1599.556,1273.771,1598.832,1271.07z"/>
		</g>
		<path style="fill:#F99746;" d="M1583.825,1275.74c-0.97-3.615,1.289-7.363,5.046-8.37c3.756-1.008,7.587,1.106,8.557,4.722
			s-1.29,7.363-5.046,8.371C1588.626,1281.47,1584.794,1279.355,1583.825,1275.74z"/>
		<g>
			<path style="fill:#EF7E29;" d="M1386.093,1076.839c2.987-11.136,14.788-17.648,26.358-14.545c2.96,0.794,5.616,2.143,7.883,3.894
				l4.558,3.307l-0.556,0.712c3.812,4.982,5.369,11.491,3.658,17.87c-2.986,11.136-14.787,17.647-26.357,14.545
				c-0.725-0.194-1.432-0.422-2.119-0.681l-0.529,0.676l-5.166-3.827l0.003-0.004
				C1387.182,1093.699,1383.863,1085.156,1386.093,1076.839z"/>
		</g>
		<path style="fill:#F99746;" d="M1432.315,1091.222c2.987-11.136-3.972-22.679-15.542-25.782
			c-11.57-3.103-23.371,3.409-26.358,14.545c-2.986,11.137,3.972,22.68,15.542,25.783
			C1417.528,1108.87,1429.329,1102.357,1432.315,1091.222z"/>
		<g>
			<g>
				<path style="fill:#EF7E29;" d="M1404.492,1082.911c0.97-3.615,4.801-5.729,8.557-4.722c0.961,0.258,1.823,0.695,2.56,1.264
					l1.479,1.074l-0.181,0.23c1.238,1.618,1.743,3.73,1.188,5.802c-0.97,3.615-4.801,5.729-8.557,4.723
					c-0.235-0.063-0.465-0.138-0.688-0.222l-0.171,0.22l-1.677-1.242l0.001-0.002
					C1404.845,1088.385,1403.768,1085.611,1404.492,1082.911z"/>
			</g>
			<path style="fill:#F99746;" d="M1419.499,1087.581c0.969-3.615-1.29-7.363-5.046-8.37c-3.756-1.008-7.587,1.106-8.557,4.722
				s1.29,7.363,5.046,8.37C1414.697,1093.311,1418.529,1091.196,1419.499,1087.581z"/>
		</g>
		<path style="fill:#233862;" d="M1451.249,1199.083c0,0,14.4,10.55,29.655,10.978s68.863-12.688,68.863-12.688l-2.21-4.171
			c0,0-58.764,15.719-72.546,11.062s-22.146-10.17-22.146-10.17L1451.249,1199.083z"/>
		<path style="fill:#FFB27D;" d="M1464.071,1561.407c-6.512,0.092-21.833-1.655-27.962,0l-24.645,0.008
			c-5.746-3.524-8.06-7.615,7.155-9.492c21.972-2.72,25.955-24.768,26.376-27.541c0.008-0.054,0.016-0.092,0.016-0.13
			c0.015-0.107,0.023-0.161,0.023-0.161l20.569,7.86c0,0-0.007,0.015-0.015,0.038c-0.008,0.007-0.015,0.022-0.023,0.046
			c-0.016,0.03-0.038,0.076-0.054,0.13l-0.008,0.008c-0.046,0.107-0.107,0.253-0.184,0.437c0,0.016-0.008,0.031-0.016,0.046
			c-0.72,1.9-2.352,7.386-0.084,13.904C1467.167,1552.16,1470.583,1561.315,1464.071,1561.407z"/>
		<path style="fill:#FFB27D;" d="M1625.656,1561.407c-6.512,0.092-21.834-1.655-27.963,0l-24.645,0.008
			c-5.746-3.524-7.937-6.818,7.148-9.492c22.209-3.938,24.722-14.073,23.741-20.7c-0.483-3.316-1.839-5.753-2.046-6.098
			c-0.016-0.031-0.022-0.046-0.022-0.046l23.12-1.433c0,0-0.092,1.31-0.138,3.363c-0.123,4.849-0.031,13.858,1.953,19.55
			C1628.751,1552.16,1632.168,1561.315,1625.656,1561.407z"/>
		<path style="fill:#213F7A;" d="M1465.305,1532.655c-0.72,1.9-2.352,7.386-0.084,13.904c1.946,5.601,5.362,14.756-1.149,14.848
			s-21.833-1.655-27.962,0l-24.645,0.008c-5.746-3.524-8.06-7.615,7.155-9.492c21.972-2.72,25.955-24.768,26.376-27.541
			c0.008-0.054,0.016-0.092,0.016-0.13c0.49-4.191,0.996-8.926,1.479-14.135c0,0,10.166,7.53,26.706,2.965v0.008
			c-2.773,7.4-5.408,13.813-7.592,18.861c0,0-0.007,0.015-0.015,0.038c-0.008,0.007-0.015,0.022-0.023,0.046
			c-0.016,0.038-0.031,0.084-0.054,0.13l-0.008,0.008c-0.054,0.146-0.123,0.291-0.184,0.437
			C1465.32,1532.625,1465.313,1532.641,1465.305,1532.655z"/>
		<path style="fill:#213F7A;" d="M1625.656,1561.407c-6.512,0.092-21.834-1.655-27.963,0l-24.645,0.008
			c-5.746-3.524-7.937-6.818,7.148-9.492c22.209-3.938,24.722-14.073,23.741-20.7c-0.582-1.746-1.272-3.792-2.046-6.098
			c-0.016-0.031-0.022-0.046-0.022-0.046c-1.41-4.176-3.126-9.193-5.072-14.755c6.336,0.053,17.919-0.613,28.308-5.348
			c0.168,6.933,0.092,13.246-0.115,18.67c-0.038,1.164-0.092,2.283-0.138,3.363c-0.123,4.849-0.031,13.858,1.953,19.55
			C1628.751,1552.16,1632.168,1561.315,1625.656,1561.407z"/>
		<path style="fill:#FFFFFF;" d="M1470.972,999.234c0,0,0.958,2.121,1.379,3.174c0.421,1.053,6.577,1.102,8.524-0.079
			c1.62-0.982,3.602-3.705,3.498-3.602C1484.373,998.727,1473.743,998.481,1470.972,999.234z"/>
	</g>
	<g>
		<path style="fill:#F99746;" d="M729.908,1335.007c-5.6,6.101-13.998,12.391-0.645,26.345
			c17.121,17.88,43.604,94.932,43.604,94.932c-0.908,2.943,0.025,7.029-2.07,8.23c-3.385,1.941-12.033-3.986-12.033-3.986
			s-78.641-81.46-85.02-99.777c-4.71-13.521,19.37-79.042,33.78-113.368c5.103-12.162,8.995-20.407,9.963-21.048
			c0.149-0.1,0.298-0.193,0.447-0.283c8.474-5.371,16.446-4.686,23.569-0.565c1.519,0.884,3.003,1.916,4.443,3.087
			c17.593,14.272,28.896,48.132,27.724,55.171c-0.814,4.899-9.397,15.274-18.814,25.49c-1.956,2.12-3.947,4.234-5.912,6.29
			C740.382,1324.498,732.31,1332.391,729.908,1335.007z"/>
		<path style="fill:#ED7D2B;" d="M754.857,1309.233c-1.956,2.12-3.947,4.234-5.912,6.29l-41.42-68.142
			c5.103-12.162,8.995-20.407,9.963-21.048c0.149-0.1,0.298-0.193,0.447-0.283l23.569-0.565l4.259-0.1l0.184,3.187L754.857,1309.233
			z"/>
		<path style="fill:#FFB27D;" d="M731.413,1072.201c0,0,8.812,21.534,6.526,34.35c-2.286,12.815-32.617,76.662-43.674,87.588
			c-11.057,10.926-84.361-35.553-84.361-35.553l7.213-6.893c0,0,57.986,14.761,61.054,10.131
			C681.24,1157.194,696.002,1066.218,731.413,1072.201z"/>
		<path style="fill:#F99746;" d="M729.674,1240.99c0,0,15.042,75.21,52.996,128.124c36.678,51.136,55.757,129.501,55.757,129.501
			s2.435,1.9,7.227-0.135c4.792-2.035,8.004,0.435,8.968-1.895c0,0-6.928-123.703-25.959-150.785
			c-10.754-15.303-16.488-71.477-16.122-86.765c0.366-15.287-6.323-34.025-6.323-34.025L729.674,1240.99z"/>
		<g>
			<path style="fill:#233862;" d="M854.269,1518.809l-8.874,0.063c-2.976-0.447-5.177-1.292-8.228-1.669
				c-4.634-0.575-6.753,1.338-7.173,1.777c-0.057,0.057-0.081,0.089-0.081,0.089l-37.697,0.265
				c-0.958-1.347-0.069-4.491,0.806-6.806c0.59-1.573,1.891-2.771,3.507-3.25c3.989-1.186,11.863-2.272,19.034-8.856
				c4.035-3.697,19.513-13.629,19.513-13.629l0.082-0.02c0.342,0.004,1.971,0.492,9.084,6.413c3.678,3.055,9.855-4.42,9.855-4.42
				s1.177,0.959,2.063,2.756c0.712,1.418,1.238,3.369,0.85,5.781c-0.539,3.4,1.32,9.7,2.798,13.959c0.898,2.581,1.65,4.41,1.65,4.41
				S861.897,1517.801,854.269,1518.809z"/>
			<path style="fill:#233862;" d="M856.159,1491.521c-2.108,1.507-6.56,4.479-9.523,4.887c-4,0.553-11.56-9.616-11.56-9.616
				l0.082-0.02c0.342,0.004,1.971,0.492,9.084,6.413c3.678,3.055,9.855-4.42,9.855-4.42S855.273,1489.725,856.159,1491.521z"/>
			<path style="fill:#233862;" d="M854.269,1518.809l-8.874,0.063c-2.976-0.447-5.177-1.292-8.228-1.669
				c-4.634-0.575-6.753,1.338-7.173,1.777c-0.057,0.057-0.081,0.089-0.081,0.089l-37.697,0.265
				c-0.958-1.347-0.069-4.491,0.806-6.806c1.138-1.026,1.499,4.411,2.137,5.273c0.639,0.861,30.754,0.1,32.484-1.177
				c1.73-1.277,6.933-3.528,14.219-1.84c6.342,1.468,15.644-2.475,17.945-3.522c0.898,2.581,1.65,4.41,1.65,4.41
				S861.897,1517.801,854.269,1518.809z"/>
		</g>
		<path style="fill:#2A4E96;" d="M808.518,1177.713c0.031-42.168-7.687-103.025-18.236-107.7
			c-8.958-3.971-28.506-9.648-48.654-9.343c-15.903,0.241-49.798,7.676-53.245,33.953c-2.183,16.634-3.064,30.338-3.064,30.338
			s3.645,10.615,13.695,13.464c1.25,4.696,1.825,9.356,3.321,13.297c16.692,43.962,8.492,87.95,8.492,87.95
			c15.366,12.779,91.83,5.295,99.535,0.271C822.911,1231.758,808.486,1219.882,808.518,1177.713z"/>
		<g>
			<path style="fill:#233862;" d="M790.191,1466.836l-6.366,6.182c-2.459,1.735-4.633,2.647-7.098,4.485
				c-3.745,2.79-3.952,5.636-3.952,6.245c-0.002,0.08,0.002,0.12,0.002,0.12l-27.045,26.262c-1.624-0.31-3.156-3.195-4.124-5.473
				c-0.662-1.544-0.551-3.31,0.285-4.773c2.062-3.615,6.998-9.845,7.623-19.56c0.357-5.461,4.668-23.339,4.668-23.339l0.046-0.071
				c0.249-0.233,1.764-1.007,10.996-1.649c4.769-0.337,4.061-10.01,4.061-10.01s1.514-0.12,3.396,0.564
				c1.495,0.532,3.225,1.577,4.613,3.588c1.962,2.829,7.662,6.094,11.676,8.147c2.433,1.243,4.242,2.044,4.242,2.044
				S795.003,1460.832,790.191,1466.836z"/>
			<path style="fill:#233862;" d="M772.684,1445.819c-0.48,2.547-1.639,7.772-3.499,10.116c-2.507,3.166-15,1.05-15,1.05
				l0.046-0.071c0.249-0.233,1.764-1.007,10.996-1.649c4.769-0.337,4.061-10.01,4.061-10.01S770.802,1445.135,772.684,1445.819z"/>
			<path style="fill:#233862;" d="M790.191,1466.836l-6.366,6.182c-2.459,1.735-4.633,2.647-7.098,4.485
				c-3.745,2.79-3.952,5.636-3.952,6.245c-0.002,0.08,0.002,0.12,0.002,0.12l-27.045,26.262c-1.624-0.31-3.156-3.195-4.124-5.473
				c0.112-1.528,4.133,2.149,5.19,2.331c1.058,0.181,22.283-21.197,22.649-23.316s2.568-7.343,8.999-11.162
				c5.595-3.326,9.587-12.607,10.525-14.955c2.433,1.243,4.242,2.044,4.242,2.044S795.003,1460.832,790.191,1466.836z"/>
		</g>
		<path style="fill:#FFB27D;" d="M768.362,1075.576c0,0,23.267-0.254,34.337,6.596c11.07,6.849,59.239,58.579,65.32,72.885
			c6.081,14.307-49.819,55.099-49.819,55.099l-7.881-12.548c0,0,24.902-34.943,21.729-39.503
			C828.875,1153.546,749.747,1106.287,768.362,1075.576z"/>
		<path style="fill:#FFB27D;" d="M813.254,1195.684l9.285,7.15c0,0-8.166,17.63-12.625,19.287l-0.461,0.092
			c-4.791,0.957-16.692-6.82-18.68-14.854c-0.166-0.829-0.128-1.603,0.111-2.321c1.838-4.859,12.993-7.62,18.824-8.749
			C811.835,1195.878,813.254,1195.684,813.254,1195.684z"/>
		<path style="fill:#FFB27D;" d="M623.517,1153.253l-4.65,10.758c0,0-19.096-3.583-21.798-7.498l-0.203-0.424
			c-2.105-4.409,2.509-17.856,9.808-21.758c0.763-0.364,1.522-0.519,2.277-0.462c5.163,0.587,10.58,10.721,13.106,16.096
			C622.979,1151.926,623.517,1153.253,623.517,1153.253z"/>
		<path style="fill:#2A4E96;" d="M759.56,1061.836c0,0,21.575,0.971,37.064,10.585c7.134,4.429,34.536,30.394,34.536,30.394
			s-3.039,27.127-35.675,34.481c-33.22,7.486-38.558-48.035-38.558-48.035L759.56,1061.836z"/>
		<path style="fill:#FFB27D;" d="M753.646,1062.229c1.039,1.521,1.068,3.513,0.086,5.07c-2.894,4.594-11.005,12.535-32.131,11.082
			c-7.237-0.498-8.898-5.973-4.317-11.6c1.116-1.37,0.737-9.252,0.618-12.413c-0.419-7.306-0.147-11.411-0.147-11.411l14.969-10.247
			l14.201-9.814C744.587,1045.85,750.653,1057.846,753.646,1062.229z"/>
		<path style="fill:#ED985F;" d="M746.406,1034.425c0,0-10.447,16.37-28.504,19.943c-0.419-7.306-0.147-11.411-0.147-11.411
			l14.969-10.247L746.406,1034.425z"/>
		<path style="fill:#FFB27D;" d="M711.3,1042.036c0,0,34.796,8.086,39.532-13.32c4.735-21.407,12.416-34.781-9.6-40.849
			c-22.017-6.068-28.154,1.163-31.501,7.926C706.386,1002.557,702.371,1039.381,711.3,1042.036z"/>
		<path style="fill:#2C3A64;" d="M766.443,986.938c0.344-0.345,1.1-0.592,2.745-0.572c0,0-1.255-0.906-3.005-1.065
			c-0.191-2.302-1.137-6.417-4.995-7.658c0,0,2.034,1.264,2.148,3.705c-4.234-4.967-13.745-9.009-40.846-8.669
			c-35.716,0.449-25.514,23.974-21.094,26.991c4.42,3.017,16.491-3.65,25.016-2.402c8.525,1.249,9.334,13.741,12.129,15.632
			c2.794,1.892,1.851-1.189,5.902-2.706c4.051-1.518,3.993,5.026,2.576,9.188c-1.417,4.163,3.617,10.111,3.617,10.111
			s0,0,5.852-5.52c5.852-5.52,12.651-30.094,10.52-35.569C766.821,987.919,766.636,987.43,766.443,986.938z"/>
		<path style="fill:#FFFFFF;" d="M708.309,1028.502c0,0,0.945,3.173,4.472,3.584c3.527,0.411,5.833-2.102,5.833-2.102
			S712.832,1027.291,708.309,1028.502z"/>
	</g>
	<path style="fill:#2E3552;" d="M3117,1565.11v1.315c0,1.894-1.547,3.439-3.428,3.439H145.626c-1.893,0-3.428-1.546-3.428-3.439
		v-1.315c0-1.893,1.535-3.439,3.428-3.439h2967.947C3115.453,1561.671,3117,1563.218,3117,1565.11z"/>
	<g>
		<g>
			<path style="fill:#ADCBFF;" d="M2277.45,1199.188v217.555h-2.095v-217.467c0.344-0.021,0.695-0.034,1.047-0.047
				C2276.747,1199.209,2277.099,1199.195,2277.45,1199.188z"/>
		</g>
		<g>
			<path style="fill:#C5DBFF;" d="M2446.78,1309.79c-8.89-21.591-21.624-40.983-37.84-57.632
				c-16.215-16.649-35.102-29.719-56.123-38.853c-21.777-9.455-44.899-14.247-68.738-14.247c-2.214,0-4.429,0.041-6.629,0.13
				c-0.352,0.007-0.703,0.021-1.048,0.041c-0.352,0.013-0.703,0.026-1.047,0.047c-20.756,1.028-40.902,5.731-60.008,14.029
				c-21.028,9.134-39.915,22.203-56.13,38.853c-16.215,16.648-28.943,36.041-37.84,57.632
				c-9.208,22.353-13.875,46.102-13.875,70.571c0,24.477,4.667,48.219,13.875,70.578c8.896,21.591,21.625,40.977,37.84,57.626
				s35.102,29.725,56.13,38.853c21.77,9.454,44.899,14.253,68.731,14.253c23.839,0,46.961-4.799,68.738-14.253
				c21.021-9.128,39.908-22.203,56.123-38.853c16.216-16.649,28.95-36.035,37.84-57.626c9.208-22.359,13.882-46.102,13.882-70.578
				C2460.662,1355.892,2455.988,1332.143,2446.78,1309.79z M2402.451,1501.901c-31.622,32.461-73.658,50.343-118.372,50.343
				s-86.75-17.882-118.371-50.343c-31.615-32.461-49.03-75.629-49.03-121.54s17.415-89.072,49.03-121.533
				c29.56-30.351,68.214-47.953,109.647-50.117c0.352-0.021,0.702-0.041,1.047-0.055c0.352-0.014,0.703-0.034,1.048-0.048
				c2.2-0.088,4.415-0.129,6.629-0.129c44.714,0,86.75,17.881,118.372,50.349c31.614,32.461,49.029,75.622,49.029,121.533
				S2434.065,1469.44,2402.451,1501.901z"/>
		</g>
		<g>
			<path style="fill:#ED7D2B;" d="M2221.188,1527.721c-0.315,14.433-0.558,24.138-0.558,24.138
				c-0.381,5.565-5.11,9.786-10.529,9.396l-36.609-2.634c-5.42-0.391-9.529-5.247-9.15-10.812c0,0,1-9.737,2.399-24.092
				c0.27-2.734,0.546-5.554,0.834-8.544c3.103-31.957,7.462-78.623,8.965-99.423c1.392-20.379,3.229-68.172,4.315-97.606
				c0.123-3.003,0.227-5.749,0.318-8.323c0.344-9.956,0.531-16.396,0.531-16.396c0.38-5.565,5.109-9.785,10.529-9.395l36.609,2.634
				c5.42,0.391,9.529,5.246,9.15,10.812c0,0-0.768,6.313-1.938,16.123c-0.259,2.563-0.624,5.462-0.919,8.538
				c-3.422,29.267-8.75,76.637-10.147,97.101c-1.414,20.721-2.771,67.603-3.621,99.721
				C2221.324,1522.052,2221.292,1524.975,2221.188,1527.721z"/>
			<path style="fill:#F99746;" d="M2205.178,1526.568c-0.314,14.433-0.558,24.139-0.558,24.139c-0.38,5.564-5.109,9.785-10.53,9.395
				l-20.598-1.481c-5.42-0.391-9.529-5.247-9.15-10.812c0,0,1-9.737,2.399-24.092c0.27-2.734,0.546-5.554,0.834-8.544
				c3.103-31.957,7.462-78.623,8.965-99.423c1.392-20.379,3.229-68.172,4.315-97.606c0.123-3.003,0.227-5.749,0.318-8.323
				c0.344-9.956,0.531-16.396,0.531-16.396c0.38-5.565,5.109-9.785,10.529-9.395l20.598,1.482c5.421,0.39,9.531,5.245,9.151,10.811
				c0,0-0.767,6.313-1.939,16.123c-0.259,2.563-0.624,5.462-0.918,8.538c-3.422,29.267-8.75,76.637-10.146,97.101
				c-1.415,20.721-2.771,67.603-3.622,99.721C2205.313,1520.899,2205.281,1523.822,2205.178,1526.568z"/>
			<path style="fill:#F9DDBF;" d="M2236.056,1313.598c-0.259,2.563-0.624,5.462-0.919,8.538l-53.536-3.853
				c-0.251-0.018-0.5-0.036-0.745-0.14c0.123-3.003,0.227-5.749,0.318-8.323c0.344-0.147,0.678-0.123,1.011-0.1L2236.056,1313.598z"
				/>
			<path style="fill:#F9DDBF;" d="M2166.74,1523.717c0.161,0.098,0.328,0.109,0.495,0.121l53.953,3.883
				c0.104-2.746,0.136-5.669,0.179-8.764l-53.536-3.853c-0.083-0.006-0.167-0.012-0.256,0.068L2166.74,1523.717z"/>
		</g>
		<g>
			<path style="fill:#739CF3;" d="M2264.908,1317.574c0-1.431,0-117.403,0-117.403V1317.574z"/>
			<path style="fill:#ADCBFF;" d="M2264.908,1318.647c-0.576,0-1.045-0.481-1.045-1.073v-117.402c0-0.593,0.469-1.073,1.045-1.073
				c0.577,0,1.045,0.48,1.045,1.073v117.402C2265.953,1318.166,2265.485,1318.647,2264.908,1318.647z"/>
		</g>
		<path style="fill:#F99746;" d="M2264.43,1338.406L2264.43,1338.406c-2.227,0-4.049-1.822-4.049-4.049v-14.434
			c0-2.227,1.822-4.049,4.049-4.049l0,0c2.227,0,4.049,1.822,4.049,4.049v14.434
			C2268.479,1336.584,2266.656,1338.406,2264.43,1338.406z"/>
		<path style="fill:#F99746;" d="M2276.403,1432.93L2276.403,1432.93c-2.228,0-4.05-1.822-4.05-4.049v-14.433
			c0-2.228,1.822-4.05,4.05-4.05l0,0c2.227,0,4.049,1.822,4.049,4.05v14.433C2280.452,1431.107,2278.63,1432.93,2276.403,1432.93z"
			/>
	</g>
	<g>
		<g>
			<path style="fill:#AEC3FF;" d="M186.622,1061.31c0.877-3.186,1.789-6.359,2.735-9.533c1.304-4.375,2.678-8.749,4.109-13.112
				c4.628,0.231,9.383,0.981,13.516,2.666C206.982,1041.33,194.39,1052.088,186.622,1061.31z"/>
			<path style="fill:#AEC3FF;" d="M304.568,1110.189c-9.395,21.468-24.203,24.064-29.489,21.617
				c-5.298-2.435-33.264-25.553-35.479-21.283c-2.227,4.26,12.142,25.496,25.45,30.748c0,0-35.087,19.552-49.318,5.679
				c-14.243-13.874-11.334-27.251-20.291-35.665c-8.945-8.413-17.994-11.461-15.293-5.055c2.712,6.417,20.256,17.682,22.691,30.436
				c2.424,12.754,5.424,21.814-11.253,13.238c-6.083-3.127-13.158-8.102-19.517-13.907c1.27-10.665,2.874-21.33,4.813-31.96
				c0.981-5.413,2.054-10.803,3.243-16.193c0.381-1.847,0.796-3.693,1.223-5.551c0.646-2.863,1.328-5.726,2.02-8.576
				c8.148-1.847,30.297-32.444,30.297-32.444s40.235,9.396,50.726,19.656c0,0-42.508,15.985-36.033,19.979
				c6.463,3.994,51.465-10.606,51.465-10.606S313.986,1088.733,304.568,1110.189z"/>
			<g>
				<path style="fill:#AEC3FF;" d="M286.505,1104.753c-55.528-16.759-87.729-19.391-106.381-16.909
					c0.381-1.847,0.796-3.693,1.223-5.551C221.455,1080.25,284.335,1103.934,286.505,1104.753z"/>
			</g>
		</g>
		<g>
			<path style="fill:#AEC3FF;" d="M465.749,982.132c-13.896,33.921-36.945,38.55-45.302,34.926
				c-8.368-3.625-52.965-38.712-56.278-31.96c-3.313,6.752,19.944,39.404,40.95,47.137c0,0-54.131,31.891-76.903,10.723
				c-22.784-21.156-18.744-42.197-33.067-55.02c-14.312-12.811-28.566-17.232-24.1-7.306c4.479,9.915,32.317,26.881,36.611,46.733
				c4.282,19.852,9.314,33.91-17.093,21.109c-26.408-12.788-65.119-47.079-59.879-70.913c0.231-1.027,0.45-2.02,0.658-2.966
				l0.011-0.023c4.583-20.833,4.583-20.833,4.583-20.833s-0.762-1.777-1.789-4.813c0,0,0,0,0-0.012
				c8.368-14.162,17.647-28.127,27.908-41.839c0.566-0.762,1.143-1.523,1.72-2.285c7.768-10.261,16.089-20.372,24.976-30.332
				c7.433,0.15,15.12,1.143,21.791,3.67c0,0-47.437,42.566-38.977,50.911c8.472,8.345,49.445-51.246,49.445-51.246
				s63.261,13.17,80.042,28.808c0,0-65.858,26.616-55.597,32.606c10.261,6.002,80.077-18.502,80.077-18.502
				S479.657,948.223,465.749,982.132z"/>
			<g>
				<path style="fill:#AEC3FF;" d="M437.229,974.284c-175.978-48.51-202.028-11.08-205.872,0.289l-0.011,0.023
					c-0.612,1.835-0.658,2.966-0.658,2.966c-2.932-0.369-7.987,1.039-13.7,3.22c2.436-4.997,4.986-9.984,7.641-14.947
					c7.56-6.879,11.311-12.096,11.311-12.096C283.169,920.626,431.932,972.415,437.229,974.284z"/>
			</g>
		</g>
	</g>
	<g>
		<path style="fill:#FFA969;" d="M2995.155,1494.914l0.161,54.742c0.02,6.48-5.27,11.802-11.751,11.82l-22.438,0.066
			c-6.852,0.021-12.477-5.571-12.496-12.422l-0.16-54.075c-0.027-9.204,5.527-17.181,13.46-20.715
			c1.041-0.464,1.704-1.545,1.544-2.678c-0.043-0.327-0.069-0.661-0.07-1.001l-0.008-2.892l16.673-0.049l0.009,2.892
			c0,0.382-0.028,0.752-0.082,1.116c-0.154,1.024,0.363,2.042,1.316,2.445C2989.405,1477.597,2995.128,1485.613,2995.155,1494.914z"
			/>
		<path style="fill:#EF7E29;" d="M2995.155,1494.914l0.161,54.742c0.02,6.48-5.27,11.802-11.751,11.82l-14.103,0.042
			c-6.852,0.021-12.476-5.571-12.496-12.423l-0.159-54.074c-0.027-9.204,5.527-17.181,13.459-20.715
			c0.382-0.171,0.714-0.427,0.974-0.736c0.441-0.529,0.67-1.227,0.57-1.942c-0.043-0.327-0.068-0.66-0.069-1l-0.009-2.892
			l8.337-0.024l0.009,2.892c0,0.382-0.028,0.752-0.082,1.116c-0.154,1.024,0.363,2.042,1.316,2.445
			C2989.405,1477.597,2995.128,1485.613,2995.155,1494.914z"/>
		<path style="fill:#F99746;" d="M2985.909,1494.941l0.162,54.742c0.019,6.48-5.271,11.802-11.752,11.82l-4.856,0.015
			c-6.852,0.021-12.476-5.571-12.496-12.423l-0.159-54.074c-0.027-9.204,5.527-17.181,13.459-20.715
			c0.382-0.171,0.714-0.427,0.974-0.736c0.213,0.266,0.493,0.483,0.827,0.622
			C2980.159,1477.624,2985.882,1485.641,2985.909,1494.941z"/>
		
			<rect x="2948.532" y="1499.669" transform="matrix(1 -0.0029 0.0029 1 -4.4579 8.7725)" style="fill:#F9DDBF;" width="46.684" height="32.134"/>
		
			<rect x="2962.452" y="1463.126" transform="matrix(1 -0.005 0.005 1 -7.2208 14.7359)" style="fill:#2C3A64;" width="18.536" height="4.388"/>
	</g>
	<g>
		<path style="fill:#A9453D;" d="M2439.736,1045.463c0.394-6.698-0.572-13.042-0.572-13.042
			c-5.058,12.891-12.015,19.432-16.955,22.646c-1.623,0.394-2.904,0.551-3.557,0.394c-2.736-0.658-5.345-1.529-7.834-2.563
			c7.312-5.637,14.403-14.561,14.836-15.117c-6.569,6.053-14.555,10.199-20.073,12.604c-13.594-7.384-22.911-19.46-27.963-27.412
			c34.886-11.014,45.153-32.885,45.153-32.885c-31.009,24.754-44.737,25.951-49.547,25.097c-0.063-0.124-0.091-0.185-0.091-0.185
			c46.643-12.363,59.567-66.873,75.302-85.979c15.735-19.106,34.842-4.496,34.842-4.496S2481.254,992.128,2439.736,1045.463z"/>
		<path style="fill:#F4A671;" d="M2521.035,1029.504c0,0,30.489,16.199,27.959,30.701c-4.033,23.13-21.018,73.557-21.018,73.557
			l49.588-24.7l8.867,10.698c0,0-60.223,60.123-81.436,46.313C2483.782,1152.264,2521.035,1029.504,2521.035,1029.504z"/>
		<path style="fill:#C0783D;" d="M2586.338,1119.794c0,0,16.529-8.233,12.036-18.456c-4.494-10.224-15.23-12.767-17.315-8.962
			c-2.086,3.805-3.587,16.72-3.587,16.72L2586.338,1119.794z"/>
		<path style="fill:#A9453D;" d="M2528.464,941.103c0,0-33.437-40.18-51.138-14.47c0,0-13.206,5.479-17.982,27.957
			c-4.874,22.934,10.377,40.367,18.264,36.059c5.057-2.763,8.885,6.088,8.885,6.088L2528.464,941.103z"/>
		<path style="fill:#FFB27D;" d="M2517.955,1029.236c0.127,0.058-12.292,6.506-21.634,3.951c-8.787-2.396-19.924-5.343-19.804-5.368
			c3.722-0.739,10.19-14.3,10.111-36.274l1.683,0.331l28.286,5.602c0,0-0.644,8.901-0.662,17.287
			C2515.916,1021.807,2516.343,1028.484,2517.955,1029.236z"/>
		<path style="fill:#F4A671;" d="M2516.598,997.477c0,0-0.644,8.901-0.662,17.287c-15.829-0.445-24.195-14.885-27.624-22.889
			L2516.598,997.477z"/>
		<path style="fill:#A9453D;" d="M2485.391,988.797c0,0-8.295-13.106-10.286-24.314c-1.422-8.001,2.653-37.659,32.456-33.388
			c0,0,8.656,0.853,16.793,6.349c6.471,4.37,15.81,13.805,5.368,39.686l-2.713,8.742L2485.391,988.797z"/>
		<path style="fill:#FFB27D;" d="M2521.884,1005.418c0,0-37.45,0.618-37.476-22.71c-0.026-23.328-4.877-38.959,19.033-40.34
			c23.909-1.381,28.564,7.516,30.467,15.3C2535.812,965.452,2531.625,1004.656,2521.884,1005.418z"/>
		<path style="fill:#A9453D;" d="M2520.498,941.796c0,0-10.254,27.368-25.99,31.415c-15.736,4.046-22.563-0.17-22.563-0.17
			s12.07-9.588,14.576-26.327C2486.521,946.715,2512.764,928.771,2520.498,941.796z"/>
		<path style="fill:#A9453D;" d="M2517.956,944.019c0,0,7.658,6.11,9.524,12.05c1.867,5.94,2.707,18.169,6.271,17.754
			c0,0,7.725-18.602-0.957-29.125C2523.59,933.539,2517.956,944.019,2517.956,944.019z"/>
		<path style="fill:#FFB27D;" d="M2441.456,1204.002c13.133-29.452,19.416-37.78,19.635-47.047c0.062-2.523-0.124-6.316-0.68-10.997
			c-0.68-5.806-1.938-12.981-4.001-20.798c0,0,0,0-0.006,0c-0.017-0.063-0.039-0.146-0.062-0.242
			c-0.169-0.68-0.518-2.186-0.956-4.344c-3.585-17.758-13.149-79.843,21.197-92.841c0.349-0.039,0.691-0.067,1.022-0.09
			c14.982-1.017,43.552,1.872,43.552,1.872s5.282,7.333,11.06,18.291c6.423,12.194,13.464,28.879,14.509,44.928
			c1.068,16.387-4.479,27.783-6.861,44.294c-2.057,14.189-1.781,32.144,7.02,60.28
			C2566.328,1259.483,2434.201,1220.276,2441.456,1204.002z"/>
		<path style="fill:#A9453D;" d="M2519.379,944.943c0,0-7.306,28.66-27.161,37.838c0,0,19.855-17.608,21.541-36.527
			C2515.445,927.335,2519.379,944.943,2519.379,944.943z"/>
		<path style="fill:#F4A671;" d="M2539.865,1137.028c0,0-49.851,14.279-79.454,8.93c-0.68-5.806-1.938-12.981-4.001-20.798
			c0,0,0,0-0.006,0c-0.017-0.063-0.039-0.146-0.062-0.242c-0.169-0.68-0.518-2.186-0.956-4.344c9.447-5.529,20.585-9.48,20.585-9.48
			L2539.865,1137.028z"/>
		<path style="fill:#AEC3FF;" d="M2546.424,1104.39c-1.236,10.829-4.782,20.31-6.559,32.639
			c-34.273,4.495-71.683-7.604-83.455-11.868c0,0,0,0-0.006,0c-0.017-0.063-0.039-0.146-0.062-0.242
			c-1.568-6.294-18.275-82.607,20.241-97.185c4.962,1.613,8.641,7.127,15.403,9.745c13.812,5.345,29.735,6.861,40.66,5.822
			c4.456,8.457,8.774,23.584,11.618,34.649c1.259,4.889,2.141,9.868,2.461,14.784
			C2546.997,1096.888,2546.846,1100.715,2546.424,1104.39z"/>
		<path style="fill:#AEC3FF;" d="M2517.955,1029.236c0,0,8.779-0.375,11.59,1.498c2.81,1.873,17.045,18.545,17.795,20.793
			c0,0-17.607-1.499-19.294-0.375C2528.046,1051.152,2534.463,1047.406,2517.955,1029.236z"/>
		<path style="fill:#C0783D;" d="M2658.419,1054.524c0,0,28.099-11.989,29.222-8.242c1.124,3.746,3.372,20.604-2.622,22.853
			s-27.724,0-27.724,0L2658.419,1054.524z"/>
		<path style="fill:#FFB27D;" d="M2596.572,1548.445l-13.736-4.179c0,0-63.532-73.19-49.258-150.026
			c0.151-0.82,0.156-1.658-0.22-2.399c-0.006-0.012-0.006-0.017-0.011-0.022c-2.748-5.435-14.572-29.132-26.846-58.533
			c-5.872-14.077-11.852-29.469-16.981-44.794c-3.034-9.053-5.771-18.083-8.02-26.805c-0.022-0.085-0.039-0.146-0.05-0.196
			c-0.018-0.063-0.023-0.096-0.023-0.096c-5.518-21.534-8.024-41.152-4.563-54.572l68.608-16.386c0,0,6.822,27.698,14.061,63.506
			c10.138,50.166,21.085,116.252,15.224,144.411C2569.554,1423.332,2596.572,1548.445,2596.572,1548.445z"/>
		<path style="fill:#213F7A;" d="M2570.836,1112.358c0,0,5.901,6.532,7.728,15.032c0,0,7.727-7.516,8.184-7.691
			c0.456-0.176,7.235-3.969,10.185-8.324c2.951-4.355,4.918-7.961,0.984-14.518c-3.934-6.556-15.174-8.429-16.484-7.117
			c-1.312,1.311-4.871,17.607-4.871,17.607S2576.157,1108.583,2570.836,1112.358z"/>
		<path style="fill:#F4A671;" d="M2506.502,1333.285c-5.872-14.077-11.852-29.469-16.981-44.794
			c-3.034-9.053-5.771-18.083-8.02-26.805c-0.022-0.085-0.039-0.146-0.05-0.196c-0.018-0.063-0.023-0.096-0.023-0.096l5.193-0.573
			l52.66-5.822c0,0,0.337,3.973,0.792,10.57C2541.181,1281.557,2524.255,1309.054,2506.502,1333.285z"/>
		<path style="fill:#FFB27D;" d="M2536.382,1208.874l-30.862,68.559c-0.158-0.079-0.315-0.157-0.473-0.236
			c-17.499,48.098-42.596,110.193-62.281,131.171c-17.46,18.606-59.612,139.461-59.612,139.461l-11.334-4.029
			c0,0-14.285-102.275,37.954-160.41c0.557-0.618,0.994-1.332,1.063-2.158v-0.027c0.449-5.614,2.41-28.564,6.541-56.864
			c1-6.867,2.129-14.044,3.394-21.371c1.838-10.621,3.962-21.551,6.401-32.257c0.039-0.18,0.078-0.354,0.117-0.522
			c0.102-2.596,0.35-6.929,0.961-12.576c0.838-7.71,2.35-17.859,5.092-29.356c0.084-0.337,0.163-0.68,0.247-1.022
			c6.17-25.412,14.981-38.213,14.981-38.213s46.93,12.97,63.226,14.094C2528.093,1204.238,2536.382,1208.874,2536.382,1208.874z"/>
		<path style="fill:#F99746;" d="M2559.534,1253.944c-2.366,3.72-10.031,7.918-19.461,11.627l-0.118,0.045
			c-10.936,4.287-24.214,7.918-34.34,9.396c-8.576,1.253-14.893,0.955-15.595-1.793c-5.519-21.533-16.617-52.975-13.155-66.395
			l68.608-16.387C2545.474,1190.438,2552.296,1218.137,2559.534,1253.944z"/>
		<g>
			<path style="fill:#485CA6;" d="M2371.101,1563.186h7.885c2.641-0.416,4.591-1.18,7.3-1.534c4.113-0.539,6.007,1.146,6.383,1.534
				c0.051,0.051,0.073,0.079,0.073,0.079h33.493c0.843-1.202,0.033-3.99-0.759-6.041c-0.534-1.394-1.697-2.45-3.136-2.866
				c-3.552-1.028-10.554-1.944-16.966-7.749c-3.607-3.26-17.42-11.986-17.42-11.986l-0.073-0.017
				c-0.304,0.005-1.748,0.449-8.03,5.754c-3.248,2.736-8.783-3.866-8.783-3.866s-1.04,0.859-1.815,2.461
				c-0.624,1.265-1.079,3.001-0.719,5.143c0.5,3.018-1.113,8.626-2.4,12.419c-0.781,2.298-1.438,3.928-1.438,3.928
				S2364.318,1562.337,2371.101,1563.186z"/>
			<path style="fill:#A9453D;" d="M2369.252,1538.954c1.883,1.326,5.855,3.939,8.491,4.282c3.558,0.467,10.211-8.614,10.211-8.614
				l-0.073-0.017c-0.304,0.005-1.748,0.449-8.03,5.754c-3.248,2.736-8.783-3.866-8.783-3.866S2370.027,1537.353,2369.252,1538.954z"
				/>
			<path style="fill:#A9453D;" d="M2371.101,1563.186h7.885c2.641-0.416,4.591-1.18,7.3-1.534c4.113-0.539,6.007,1.146,6.383,1.534
				c0.051,0.051,0.073,0.079,0.073,0.079h33.493c0.843-1.202,0.033-3.99-0.759-6.041c-1.018-0.905-1.304,3.928-1.866,4.698
				c-0.562,0.77-27.322,0.28-28.867-0.844c-1.545-1.123-6.182-3.09-12.645-1.545c-5.625,1.343-13.914-2.102-15.965-3.018
				c-0.781,2.298-1.438,3.928-1.438,3.928S2364.318,1562.337,2371.101,1563.186z"/>
		</g>
		<g>
			<path style="fill:#485CA6;" d="M2576.766,1563.186h7.885c2.641-0.416,4.591-1.18,7.299-1.534
				c4.114-0.539,6.008,1.146,6.385,1.534c0.05,0.051,0.072,0.079,0.072,0.079h33.493c0.843-1.202,0.033-3.99-0.759-6.041
				c-0.534-1.394-1.697-2.45-3.136-2.866c-3.552-1.028-10.554-1.944-16.966-7.749c-3.607-3.26-17.42-11.986-17.42-11.986
				l-0.073-0.017c-0.304,0.005-1.748,0.449-8.03,5.754c-3.248,2.736-8.783-3.866-8.783-3.866s-1.04,0.859-1.815,2.461
				c-0.624,1.265-1.079,3.001-0.72,5.143c0.5,3.018-1.112,8.626-2.399,12.419c-0.78,2.298-1.438,3.928-1.438,3.928
				S2569.982,1562.337,2576.766,1563.186z"/>
			<path style="fill:#A9453D;" d="M2574.917,1538.954c1.882,1.326,5.855,3.939,8.491,4.282c3.557,0.467,10.211-8.614,10.211-8.614
				l-0.073-0.017c-0.304,0.005-1.748,0.449-8.03,5.754c-3.248,2.736-8.783-3.866-8.783-3.866S2575.692,1537.353,2574.917,1538.954z"
				/>
			<path style="fill:#A9453D;" d="M2576.766,1563.186h7.885c2.641-0.416,4.591-1.18,7.299-1.534
				c4.114-0.539,6.008,1.146,6.385,1.534c0.05,0.051,0.072,0.079,0.072,0.079h33.493c0.843-1.202,0.033-3.99-0.759-6.041
				c-1.018-0.905-1.304,3.928-1.866,4.698c-0.562,0.77-27.322,0.28-28.867-0.844c-1.546-1.123-6.182-3.09-12.644-1.545
				c-5.625,1.343-13.914-2.102-15.966-3.018c-0.78,2.298-1.438,3.928-1.438,3.928S2569.982,1562.337,2576.766,1563.186z"/>
		</g>
		<path style="fill:#94B0ED;" d="M2546.424,1104.39c-59.072-2.849-84.08-26.451-84.08-26.451l81.922,0.012
			c1.259,4.889,2.141,9.868,2.461,14.784C2546.997,1096.888,2546.846,1100.715,2546.424,1104.39z"/>
		<path style="fill:#FFB27D;" d="M2657.295,1069.135c0,0-47.49,15.641-82.045,16.484c-29.07,0.708-79.323,4.289-106.066-4.567
			c-5.053-1.675-8.599-3.854-10.07-6.67c-9.272-17.702,5.996-36.005,5.996-36.005s8.626,0.883,21.612,2.124
			c32.768,3.147,74.976,12.751,94.897,12.149c27.811-0.843,53.198,1.124,76.8,1.874L2657.295,1069.135z"/>
		<path style="fill:#AEC3FF;" d="M2469.184,1081.052c-5.053-1.675-8.599-3.854-10.07-6.67c-9.272-17.702,5.996-36.005,5.996-36.005
			s8.626,0.883,21.612,2.124C2483.698,1043.631,2467.705,1061.209,2469.184,1081.052z"/>
		<path style="fill:#213F7A;" d="M2650.927,1054.243c0,0,1.253,10.429-2.33,17.593c0,0,8.078-2.502,8.78-2.467
			c0.703,0.035,16.964,1.334,22.725,0.702c5.76-0.632,8.757-0.188,9.318-10.583c0.563-10.396,0.281-14.611-1.686-14.705
			s-11.427,1.593-28.847,9.085C2658.888,1053.868,2657.857,1054.384,2650.927,1054.243z"/>
		<path style="fill:#F99746;" d="M2448.572,1189.019c0,0-17.518,21.103-21.283,81.17c0,0,23.582,4.809,28.64,3.311
			c5.058-1.499,13.861-23.04,13.861-23.04s-4.87,21.166-0.188,25.101c4.683,3.934,34.279,7.492,34.279,7.492l35.216-78.299
			C2539.098,1204.753,2490.106,1199.134,2448.572,1189.019z"/>
		<path style="fill:#EF7E29;" d="M2446.469,1190.61c0,0,42.989,21.636,72.492,15.173s27.924-8.475,27.924-8.475l-4.884-17.375
			c0,0-15.453,8.71-35.965,7.867s-50.856-14.049-50.856-14.049L2446.469,1190.61z"/>
	</g>
</g>
</svg>
